{
	"asset":{
		"generator":"Khronos glTF Blender I/O v4.4.56",
		"version":"2.0"
	},
	"extensionsUsed":[
		"KHR_materials_specular",
		"KHR_materials_ior"
	],
	"scene":0,
	"scenes":[
		{
			"name":"Scene",
			"nodes":[
				0,
				1,
				2,
				4
			]
		}
	],
	"nodes":[
		{
			"name":"root"
		},
		{
			"name":"root.001"
		},
		{
			"name":"root.002"
		},
		{
			"mesh":0,
			"name":"node_id100",
			"scale":[
				0.004590906668454409,
				0.004590906668454409,
				0.004590906668454409
			],
			"translation":[
				0.09670349210500717,
				-0.07484067231416702,
				0.13756537437438965
			]
		},
		{
			"children":[
				3
			],
			"name":"root.003"
		}
	],
	"materials":[
		{
			"alphaMode":"MASK",
			"doubleSided":true,
			"extensions":{
				"KHR_materials_specular":{
					"specularColorTexture":{
						"index":0
					}
				},
				"KHR_materials_ior":{
					"ior":1000
				}
			},
			"name":"196",
			"pbrMetallicRoughness":{
				"baseColorTexture":{
					"index":1
				},
				"metallicFactor":0,
				"metallicRoughnessTexture":{
					"index":2
				}
			}
		}
	],
	"meshes":[
		{
			"name":"mesh_id101",
			"primitives":[
				{
					"attributes":{
						"POSITION":0,
						"NORMAL":1,
						"TEXCOORD_0":2
					},
					"indices":3,
					"material":0
				}
			]
		}
	],
	"textures":[
		{
			"sampler":0,
			"source":0
		},
		{
			"sampler":0,
			"source":1
		},
		{
			"sampler":0,
			"source":2
		}
	],
	"images":[
		{
			"mimeType":"image/png",
			"name":"Image_1",
			"uri":"Image_1.png"
		},
		{
			"mimeType":"image/png",
			"name":"Image_0",
			"uri":"Image_0.png"
		},
		{
			"mimeType":"image/png",
			"name":"Image_1",
			"uri":"Image_1-1.png"
		}
	],
	"accessors":[
		{
			"bufferView":0,
			"componentType":5126,
			"count":24075,
			"max":[
				34.698265075683594,
				32.8188591003418,
				69.93419647216797
			],
			"min":[
				-76.82654571533203,
				-0.21496379375457764,
				-18.338451385498047
			],
			"type":"VEC3"
		},
		{
			"bufferView":1,
			"componentType":5126,
			"count":24075,
			"type":"VEC3"
		},
		{
			"bufferView":2,
			"componentType":5126,
			"count":24075,
			"type":"VEC2"
		},
		{
			"bufferView":3,
			"componentType":5123,
			"count":132942,
			"type":"SCALAR"
		}
	],
	"bufferViews":[
		{
			"buffer":0,
			"byteLength":288900,
			"byteOffset":0,
			"target":34962
		},
		{
			"buffer":0,
			"byteLength":288900,
			"byteOffset":288900,
			"target":34962
		},
		{
			"buffer":0,
			"byteLength":192600,
			"byteOffset":577800,
			"target":34962
		},
		{
			"buffer":0,
			"byteLength":265884,
			"byteOffset":770400,
			"target":34963
		}
	],
	"samplers":[
		{
			"magFilter":9729,
			"minFilter":9987
		}
	],
	"buffers":[
		{
			"byteLength":1036284,
			"uri":"komodo_dragon.bin"
		}
	]
}
