{
	"asset":{
		"generator":"Khronos glTF Blender I/O v4.4.56",
		"version":"2.0"
	},
	"extensionsUsed":[
		"KHR_materials_specular",
		"KHR_materials_ior"
	],
	"scene":0,
	"scenes":[
		{
			"name":"Scene",
			"nodes":[
				0,
				6,
				12,
				14
			]
		}
	],
	"nodes":[
		{
			"name":"root"
		},
		{
			"name":"node_id47"
		},
		{
			"children":[
				1
			],
			"name":"node_id46",
			"scale":[
				0.009999999776482582,
				0.009999999776482582,
				0.009999999776482582
			]
		},
		{
			"children":[
				2
			],
			"name":"node_id45"
		},
		{
			"children":[
				3
			],
			"name":"node_id44"
		},
		{
			"children":[
				4
			],
			"name":"node_id43",
			"scale":[
				0.0010000000474974513,
				0.0010000000474974513,
				0.0010000000474974513
			]
		},
		{
			"children":[
				5
			],
			"name":"root.001"
		},
		{
			"name":"node_id47.001"
		},
		{
			"children":[
				7
			],
			"name":"node_id46.001",
			"scale":[
				0.009999999776482582,
				0.009999999776482582,
				0.009999999776482582
			]
		},
		{
			"children":[
				8
			],
			"name":"node_id45.001"
		},
		{
			"children":[
				9
			],
			"name":"node_id44.001"
		},
		{
			"children":[
				10
			],
			"name":"node_id43.001",
			"scale":[
				0.0010000000474974513,
				0.0010000000474974513,
				0.0010000000474974513
			]
		},
		{
			"children":[
				11
			],
			"name":"root.002"
		},
		{
			"mesh":0,
			"name":"node_id30",
			"scale":[
				0.007619000039994717,
				0.007619000039994717,
				0.007619000039994717
			],
			"translation":[
				-0.011573423631489277,
				-0.26096296310424805,
				0.1950395256280899
			]
		},
		{
			"children":[
				13
			],
			"name":"root.003"
		}
	],
	"materials":[
		{
			"alphaMode":"MASK",
			"doubleSided":true,
			"extensions":{
				"KHR_materials_specular":{
					"specularColorTexture":{
						"index":0
					}
				},
				"KHR_materials_ior":{
					"ior":1000
				}
			},
			"name":"47",
			"pbrMetallicRoughness":{
				"baseColorTexture":{
					"index":1
				},
				"metallicFactor":0,
				"metallicRoughnessTexture":{
					"index":2
				}
			}
		}
	],
	"meshes":[
		{
			"name":"mesh_id31",
			"primitives":[
				{
					"attributes":{
						"POSITION":0,
						"NORMAL":1,
						"TEXCOORD_0":2
					},
					"indices":3,
					"material":0
				}
			]
		}
	],
	"textures":[
		{
			"sampler":0,
			"source":0
		},
		{
			"sampler":0,
			"source":1
		},
		{
			"sampler":0,
			"source":2
		}
	],
	"images":[
		{
			"mimeType":"image/png",
			"name":"Image_1",
			"uri":"Image_1.png"
		},
		{
			"mimeType":"image/png",
			"name":"Image_0",
			"uri":"Image_0.png"
		},
		{
			"mimeType":"image/png",
			"name":"Image_1",
			"uri":"Image_1-1.png"
		}
	],
	"accessors":[
		{
			"bufferView":0,
			"componentType":5126,
			"count":27589,
			"max":[
				31.73126220703125,
				67.85184478759766,
				28.071176528930664
			],
			"min":[
				-28.693222045898438,
				0.6514186859130859,
				-12.068693161010742
			],
			"type":"VEC3"
		},
		{
			"bufferView":1,
			"componentType":5126,
			"count":27589,
			"type":"VEC3"
		},
		{
			"bufferView":2,
			"componentType":5126,
			"count":27589,
			"type":"VEC2"
		},
		{
			"bufferView":3,
			"componentType":5123,
			"count":68112,
			"type":"SCALAR"
		}
	],
	"bufferViews":[
		{
			"buffer":0,
			"byteLength":331068,
			"byteOffset":0,
			"target":34962
		},
		{
			"buffer":0,
			"byteLength":331068,
			"byteOffset":331068,
			"target":34962
		},
		{
			"buffer":0,
			"byteLength":220712,
			"byteOffset":662136,
			"target":34962
		},
		{
			"buffer":0,
			"byteLength":136224,
			"byteOffset":882848,
			"target":34963
		}
	],
	"samplers":[
		{
			"magFilter":9729,
			"minFilter":9987
		}
	],
	"buffers":[
		{
			"byteLength":1019072,
			"uri":"sloth.bin"
		}
	]
}
