{
	"asset":{
		"generator":"Khronos glTF Blender I/O v4.4.56",
		"version":"2.0"
	},
	"extensionsUsed":[
		"KHR_materials_specular",
		"KHR_materials_ior"
	],
	"scene":0,
	"scenes":[
		{
			"name":"Scene",
			"nodes":[
				0,
				1,
				2,
				3,
				5
			]
		}
	],
	"nodes":[
		{
			"name":"root"
		},
		{
			"name":"root.001"
		},
		{
			"name":"root.002"
		},
		{
			"name":"root.003"
		},
		{
			"mesh":0,
			"name":"node_id54",
			"scale":[
				0.008105033077299595,
				0.008105033077299595,
				0.008105033077299595
			],
			"translation":[
				-0.06180331110954285,
				-0.25575366616249084,
				0.23651565611362457
			]
		},
		{
			"children":[
				4
			],
			"name":"root.004"
		}
	],
	"materials":[
		{
			"alphaMode":"MASK",
			"doubleSided":true,
			"extensions":{
				"KHR_materials_specular":{
					"specularColorTexture":{
						"index":0
					}
				},
				"KHR_materials_ior":{
					"ior":1000
				}
			},
			"name":"128",
			"pbrMetallicRoughness":{
				"baseColorTexture":{
					"index":1
				},
				"metallicFactor":0,
				"metallicRoughnessTexture":{
					"index":2
				}
			}
		}
	],
	"meshes":[
		{
			"name":"mesh_id55",
			"primitives":[
				{
					"attributes":{
						"POSITION":0,
						"NORMAL":1,
						"TEXCOORD_0":2
					},
					"indices":3,
					"material":0
				}
			]
		}
	],
	"textures":[
		{
			"sampler":0,
			"source":0
		},
		{
			"sampler":0,
			"source":1
		},
		{
			"sampler":0,
			"source":2
		}
	],
	"images":[
		{
			"mimeType":"image/png",
			"name":"Image_1",
			"uri":"Image_1.png"
		},
		{
			"mimeType":"image/png",
			"name":"Image_0",
			"uri":"Image_0.png"
		},
		{
			"mimeType":"image/png",
			"name":"Image_1",
			"uri":"Image_1-1.png"
		}
	],
	"accessors":[
		{
			"bufferView":0,
			"componentType":5126,
			"count":9376,
			"max":[
				34.96460723876953,
				63.140254974365234,
				22.436607360839844
			],
			"min":[
				-19.71400260925293,
				-0.03036785125732422,
				-17.628402709960938
			],
			"type":"VEC3"
		},
		{
			"bufferView":1,
			"componentType":5126,
			"count":9376,
			"type":"VEC3"
		},
		{
			"bufferView":2,
			"componentType":5126,
			"count":9376,
			"type":"VEC2"
		},
		{
			"bufferView":3,
			"componentType":5123,
			"count":49308,
			"type":"SCALAR"
		}
	],
	"bufferViews":[
		{
			"buffer":0,
			"byteLength":112512,
			"byteOffset":0,
			"target":34962
		},
		{
			"buffer":0,
			"byteLength":112512,
			"byteOffset":112512,
			"target":34962
		},
		{
			"buffer":0,
			"byteLength":75008,
			"byteOffset":225024,
			"target":34962
		},
		{
			"buffer":0,
			"byteLength":98616,
			"byteOffset":300032,
			"target":34963
		}
	],
	"samplers":[
		{
			"magFilter":9729,
			"minFilter":9987
		}
	],
	"buffers":[
		{
			"byteLength":398648,
			"uri":"koala_bear.bin"
		}
	]
}
