{
	"asset":{
		"generator":"Khronos glTF Blender I/O v4.4.56",
		"version":"2.0"
	},
	"extensionsUsed":[
		"KHR_materials_specular",
		"KHR_materials_ior"
	],
	"scene":0,
	"scenes":[
		{
			"name":"Scene",
			"nodes":[
				0,
				1,
				2,
				3,
				4,
				6
			]
		}
	],
	"nodes":[
		{
			"name":"root"
		},
		{
			"name":"root.001"
		},
		{
			"name":"root.002"
		},
		{
			"name":"root.003"
		},
		{
			"name":"root.004"
		},
		{
			"mesh":0,
			"name":"node_id46",
			"scale":[
				0.12961038947105408,
				0.12961038947105408,
				0.12961038947105408
			],
			"translation":[
				0,
				-0.2559208869934082,
				0.2560010552406311
			]
		},
		{
			"children":[
				5
			],
			"name":"root.005"
		}
	],
	"materials":[
		{
			"alphaMode":"MASK",
			"doubleSided":true,
			"extensions":{
				"KHR_materials_specular":{
					"specularColorTexture":{
						"index":0
					}
				},
				"KHR_materials_ior":{
					"ior":1000
				}
			},
			"name":"79",
			"pbrMetallicRoughness":{
				"baseColorTexture":{
					"index":1
				},
				"metallicFactor":0,
				"metallicRoughnessTexture":{
					"index":2
				}
			}
		}
	],
	"meshes":[
		{
			"name":"mesh_id47",
			"primitives":[
				{
					"attributes":{
						"POSITION":0,
						"NORMAL":1,
						"TEXCOORD_0":2
					},
					"indices":3,
					"material":0
				}
			]
		}
	],
	"textures":[
		{
			"sampler":0,
			"source":0
		},
		{
			"sampler":0,
			"source":1
		},
		{
			"sampler":0,
			"source":2
		}
	],
	"images":[
		{
			"mimeType":"image/png",
			"name":"Image_1",
			"uri":"Image_1.png"
		},
		{
			"mimeType":"image/png",
			"name":"Image_0",
			"uri":"Image_0.png"
		},
		{
			"mimeType":"image/png",
			"name":"Image_1",
			"uri":"Image_1-1.png"
		}
	],
	"accessors":[
		{
			"bufferView":0,
			"componentType":5126,
			"count":16455,
			"max":[
				0.9604536890983582,
				3.949692726135254,
				1.6748923063278198
			],
			"min":[
				-0.9604536890983582,
				-0.0006089687230996788,
				-1.6748923063278198
			],
			"type":"VEC3"
		},
		{
			"bufferView":1,
			"componentType":5126,
			"count":16455,
			"type":"VEC3"
		},
		{
			"bufferView":2,
			"componentType":5126,
			"count":16455,
			"type":"VEC2"
		},
		{
			"bufferView":3,
			"componentType":5123,
			"count":95052,
			"type":"SCALAR"
		}
	],
	"bufferViews":[
		{
			"buffer":0,
			"byteLength":197460,
			"byteOffset":0,
			"target":34962
		},
		{
			"buffer":0,
			"byteLength":197460,
			"byteOffset":197460,
			"target":34962
		},
		{
			"buffer":0,
			"byteLength":131640,
			"byteOffset":394920,
			"target":34962
		},
		{
			"buffer":0,
			"byteLength":190104,
			"byteOffset":526560,
			"target":34963
		}
	],
	"samplers":[
		{
			"magFilter":9729,
			"minFilter":9987
		}
	],
	"buffers":[
		{
			"byteLength":716664,
			"uri":"angel_fish.bin"
		}
	]
}
