{
	"asset":{
		"generator":"Khronos glTF Blender I/O v4.4.56",
		"version":"2.0"
	},
	"extensionsUsed":[
		"KHR_materials_specular",
		"KHR_materials_ior"
	],
	"scene":0,
	"scenes":[
		{
			"name":"Scene",
			"nodes":[
				1
			]
		}
	],
	"nodes":[
		{
			"mesh":0,
			"name":"node_id38",
			"scale":[
				0.001586318132467568,
				0.001586318132467568,
				0.001586318132467568
			],
			"translation":[
				0,
				-0.2559644281864166,
				0.27005913853645325
			]
		},
		{
			"children":[
				0
			],
			"name":"root"
		}
	],
	"materials":[
		{
			"alphaMode":"MASK",
			"doubleSided":true,
			"extensions":{
				"KHR_materials_specular":{
					"specularColorTexture":{
						"index":0
					}
				},
				"KHR_materials_ior":{
					"ior":1000
				}
			},
			"name":"59",
			"pbrMetallicRoughness":{
				"baseColorTexture":{
					"index":1
				},
				"metallicFactor":0,
				"metallicRoughnessTexture":{
					"index":2
				}
			}
		}
	],
	"meshes":[
		{
			"name":"mesh_id39",
			"primitives":[
				{
					"attributes":{
						"POSITION":0,
						"NORMAL":1,
						"TEXCOORD_0":2
					},
					"indices":3,
					"material":0
				}
			]
		}
	],
	"textures":[
		{
			"sampler":0,
			"source":0
		},
		{
			"sampler":0,
			"source":1
		},
		{
			"sampler":0,
			"source":2
		}
	],
	"images":[
		{
			"mimeType":"image/png",
			"name":"Image_1",
			"uri":"Image_1.png"
		},
		{
			"mimeType":"image/png",
			"name":"Image_0",
			"uri":"Image_0.png"
		},
		{
			"mimeType":"image/png",
			"name":"Image_1",
			"uri":"Image_1-1.png"
		}
	],
	"accessors":[
		{
			"bufferView":0,
			"componentType":5126,
			"count":2017,
			"max":[
				81.81444549560547,
				322.7377014160156,
				83.65961456298828
			],
			"min":[
				-81.81444549560547,
				-0.022308349609375,
				-101.38384246826172
			],
			"type":"VEC3"
		},
		{
			"bufferView":1,
			"componentType":5126,
			"count":2017,
			"type":"VEC3"
		},
		{
			"bufferView":2,
			"componentType":5126,
			"count":2017,
			"type":"VEC2"
		},
		{
			"bufferView":3,
			"componentType":5123,
			"count":7077,
			"type":"SCALAR"
		}
	],
	"bufferViews":[
		{
			"buffer":0,
			"byteLength":24204,
			"byteOffset":0,
			"target":34962
		},
		{
			"buffer":0,
			"byteLength":24204,
			"byteOffset":24204,
			"target":34962
		},
		{
			"buffer":0,
			"byteLength":16136,
			"byteOffset":48408,
			"target":34962
		},
		{
			"buffer":0,
			"byteLength":14154,
			"byteOffset":64544,
			"target":34963
		}
	],
	"samplers":[
		{
			"magFilter":9729,
			"minFilter":9987
		}
	],
	"buffers":[
		{
			"byteLength":78700,
			"uri":"jellyfish.bin"
		}
	]
}
