{
	"asset":{
		"generator":"Khronos glTF Blender I/O v4.4.56",
		"version":"2.0"
	},
	"extensionsUsed":[
		"KHR_materials_specular",
		"KHR_materials_ior"
	],
	"scene":0,
	"scenes":[
		{
			"name":"Scene",
			"nodes":[
				0,
				1,
				2,
				3,
				5
			]
		}
	],
	"nodes":[
		{
			"name":"root"
		},
		{
			"name":"root.001"
		},
		{
			"name":"root.002"
		},
		{
			"name":"root.003"
		},
		{
			"mesh":0,
			"name":"node_id38",
			"scale":[
				0.2080470770597458,
				0.2080470770597458,
				0.2080470770597458
			],
			"translation":[
				0,
				-0.2559998035430908,
				0.4691929519176483
			]
		},
		{
			"children":[
				4
			],
			"name":"root.004"
		}
	],
	"materials":[
		{
			"alphaMode":"MASK",
			"doubleSided":true,
			"extensions":{
				"KHR_materials_specular":{
					"specularColorTexture":{
						"index":0
					}
				},
				"KHR_materials_ior":{
					"ior":1000
				}
			},
			"name":"67.001",
			"pbrMetallicRoughness":{
				"baseColorTexture":{
					"index":1
				},
				"metallicFactor":0,
				"metallicRoughnessTexture":{
					"index":2
				}
			}
		}
	],
	"meshes":[
		{
			"name":"mesh_id39.001",
			"primitives":[
				{
					"attributes":{
						"POSITION":0,
						"NORMAL":1,
						"TEXCOORD_0":2
					},
					"indices":3,
					"material":0
				}
			]
		}
	],
	"textures":[
		{
			"sampler":0,
			"source":0
		},
		{
			"sampler":0,
			"source":1
		},
		{
			"sampler":0,
			"source":2
		}
	],
	"images":[
		{
			"mimeType":"image/png",
			"name":"Image_1",
			"uri":"Image_1.png"
		},
		{
			"mimeType":"image/png",
			"name":"Image_0",
			"uri":"Image_0.png"
		},
		{
			"mimeType":"image/png",
			"name":"Image_1",
			"uri":"Image_1-1.png"
		}
	],
	"accessors":[
		{
			"bufferView":0,
			"componentType":5126,
			"count":16413,
			"max":[
				0.7714040279388428,
				2.4609813690185547,
				2.267273426055908
			],
			"min":[
				-0.7714040279388428,
				0,
				-2.2552199363708496
			],
			"type":"VEC3"
		},
		{
			"bufferView":1,
			"componentType":5126,
			"count":16413,
			"type":"VEC3"
		},
		{
			"bufferView":2,
			"componentType":5126,
			"count":16413,
			"type":"VEC2"
		},
		{
			"bufferView":3,
			"componentType":5123,
			"count":94644,
			"type":"SCALAR"
		}
	],
	"bufferViews":[
		{
			"buffer":0,
			"byteLength":196956,
			"byteOffset":0,
			"target":34962
		},
		{
			"buffer":0,
			"byteLength":196956,
			"byteOffset":196956,
			"target":34962
		},
		{
			"buffer":0,
			"byteLength":131304,
			"byteOffset":393912,
			"target":34962
		},
		{
			"buffer":0,
			"byteLength":189288,
			"byteOffset":525216,
			"target":34963
		}
	],
	"samplers":[
		{
			"magFilter":9729,
			"minFilter":9987
		}
	],
	"buffers":[
		{
			"byteLength":714504,
			"uri":"clown_fish.bin"
		}
	]
}
