{
	"asset":{
		"generator":"Khronos glTF Blender I/O v4.4.56",
		"version":"2.0"
	},
	"extensionsUsed":[
		"KHR_materials_specular",
		"KHR_materials_ior"
	],
	"scene":0,
	"scenes":[
		{
			"name":"Scene",
			"nodes":[
				0,
				2
			]
		}
	],
	"nodes":[
		{
			"name":"root"
		},
		{
			"mesh":0,
			"name":"node_id38",
			"scale":[
				0.133123517036438,
				0.133123517036438,
				0.133123517036438
			],
			"translation":[
				0,
				-0.2558651566505432,
				0.4068196713924408
			]
		},
		{
			"children":[
				1
			],
			"name":"root.001"
		}
	],
	"materials":[
		{
			"alphaMode":"MASK",
			"doubleSided":true,
			"extensions":{
				"KHR_materials_specular":{
					"specularColorTexture":{
						"index":0
					}
				},
				"KHR_materials_ior":{
					"ior":1000
				}
			},
			"name":"61",
			"pbrMetallicRoughness":{
				"baseColorTexture":{
					"index":1
				},
				"metallicFactor":0,
				"metallicRoughnessTexture":{
					"index":2
				}
			}
		}
	],
	"meshes":[
		{
			"name":"mesh_id39",
			"primitives":[
				{
					"attributes":{
						"POSITION":0,
						"NORMAL":1,
						"TEXCOORD_0":2
					},
					"indices":3,
					"material":0
				}
			]
		}
	],
	"textures":[
		{
			"sampler":0,
			"source":0
		},
		{
			"sampler":0,
			"source":1
		},
		{
			"sampler":0,
			"source":2
		}
	],
	"images":[
		{
			"mimeType":"image/png",
			"name":"Image_1",
			"uri":"Image_1.png"
		},
		{
			"mimeType":"image/png",
			"name":"Image_0",
			"uri":"Image_0.png"
		},
		{
			"mimeType":"image/png",
			"name":"Image_1",
			"uri":"Image_1-1.png"
		}
	],
	"accessors":[
		{
			"bufferView":0,
			"componentType":5126,
			"count":9934,
			"max":[
				1.567585825920105,
				3.845041275024414,
				3.0537357330322266
			],
			"min":[
				-1.5675857067108154,
				-0.001011386513710022,
				-3.0559492111206055
			],
			"type":"VEC3"
		},
		{
			"bufferView":1,
			"componentType":5126,
			"count":9934,
			"type":"VEC3"
		},
		{
			"bufferView":2,
			"componentType":5126,
			"count":9934,
			"type":"VEC2"
		},
		{
			"bufferView":3,
			"componentType":5123,
			"count":56886,
			"type":"SCALAR"
		}
	],
	"bufferViews":[
		{
			"buffer":0,
			"byteLength":119208,
			"byteOffset":0,
			"target":34962
		},
		{
			"buffer":0,
			"byteLength":119208,
			"byteOffset":119208,
			"target":34962
		},
		{
			"buffer":0,
			"byteLength":79472,
			"byteOffset":238416,
			"target":34962
		},
		{
			"buffer":0,
			"byteLength":113772,
			"byteOffset":317888,
			"target":34963
		}
	],
	"samplers":[
		{
			"magFilter":9729,
			"minFilter":9987
		}
	],
	"buffers":[
		{
			"byteLength":431660,
			"uri":"Killer_whale.bin"
		}
	]
}
