{
	"asset":{
		"generator":"Khronos glTF Blender I/O v4.4.56",
		"version":"2.0"
	},
	"extensionsUsed":[
		"KHR_materials_specular",
		"KHR_materials_ior"
	],
	"scene":0,
	"scenes":[
		{
			"name":"Scene",
			"nodes":[
				0,
				1,
				3
			]
		}
	],
	"nodes":[
		{
			"name":"root"
		},
		{
			"name":"root.001"
		},
		{
			"mesh":0,
			"name":"node_id92",
			"scale":[
				0.003385845571756363,
				0.003385845571756363,
				0.003385845571756363
			],
			"translation":[
				0.12867608666419983,
				-0.06687997281551361,
				0.23306162655353546
			]
		},
		{
			"children":[
				2
			],
			"name":"root.002"
		}
	],
	"materials":[
		{
			"alphaMode":"MASK",
			"doubleSided":true,
			"extensions":{
				"KHR_materials_specular":{
					"specularColorTexture":{
						"index":0
					}
				},
				"KHR_materials_ior":{
					"ior":1000
				}
			},
			"name":"179",
			"pbrMetallicRoughness":{
				"baseColorTexture":{
					"index":1
				},
				"metallicFactor":0,
				"metallicRoughnessTexture":{
					"index":2
				}
			}
		}
	],
	"meshes":[
		{
			"name":"mesh_id93",
			"primitives":[
				{
					"attributes":{
						"POSITION":0,
						"NORMAL":1,
						"TEXCOORD_0":2
					},
					"indices":3,
					"material":0
				}
			]
		}
	],
	"textures":[
		{
			"sampler":0,
			"source":0
		},
		{
			"sampler":0,
			"source":1
		},
		{
			"sampler":0,
			"source":2
		}
	],
	"images":[
		{
			"mimeType":"image/png",
			"name":"Image_1",
			"uri":"Image_1.png"
		},
		{
			"mimeType":"image/png",
			"name":"Image_0",
			"uri":"Image_0.png"
		},
		{
			"mimeType":"image/png",
			"name":"Image_1",
			"uri":"Image_1-1.png"
		}
	],
	"accessors":[
		{
			"bufferView":0,
			"componentType":5126,
			"count":15157,
			"max":[
				37.6047477722168,
				39.56731414794922,
				158.9123077392578
			],
			"min":[
				-113.61299133300781,
				-0.06168043613433838,
				-68.83380889892578
			],
			"type":"VEC3"
		},
		{
			"bufferView":1,
			"componentType":5126,
			"count":15157,
			"type":"VEC3"
		},
		{
			"bufferView":2,
			"componentType":5126,
			"count":15157,
			"type":"VEC2"
		},
		{
			"bufferView":3,
			"componentType":5123,
			"count":77370,
			"type":"SCALAR"
		}
	],
	"bufferViews":[
		{
			"buffer":0,
			"byteLength":181884,
			"byteOffset":0,
			"target":34962
		},
		{
			"buffer":0,
			"byteLength":181884,
			"byteOffset":181884,
			"target":34962
		},
		{
			"buffer":0,
			"byteLength":121256,
			"byteOffset":363768,
			"target":34962
		},
		{
			"buffer":0,
			"byteLength":154740,
			"byteOffset":485024,
			"target":34963
		}
	],
	"samplers":[
		{
			"magFilter":9729,
			"minFilter":9987
		}
	],
	"buffers":[
		{
			"byteLength":639764,
			"uri":"Alligator_.bin"
		}
	]
}
