{
	"asset":{
		"generator":"Khronos glTF Blender I/O v4.4.56",
		"version":"2.0"
	},
	"extensionsUsed":[
		"KHR_materials_specular",
		"KHR_materials_ior"
	],
	"scene":0,
	"scenes":[
		{
			"name":"Scene",
			"nodes":[
				0,
				1,
				2,
				3,
				4,
				5,
				6,
				7,
				8,
				9,
				10,
				11,
				12,
				14
			]
		}
	],
	"nodes":[
		{
			"name":"root"
		},
		{
			"name":"root.001"
		},
		{
			"name":"root.002"
		},
		{
			"name":"root.003"
		},
		{
			"name":"root.004"
		},
		{
			"name":"root.005"
		},
		{
			"name":"root.006"
		},
		{
			"name":"root.007"
		},
		{
			"name":"root.008"
		},
		{
			"name":"root.009"
		},
		{
			"name":"root.010"
		},
		{
			"name":"root.011"
		},
		{
			"name":"root.012"
		},
		{
			"mesh":0,
			"name":"node_id70",
			"scale":[
				0.021555308252573013,
				0.021555308252573013,
				0.021555308252573013
			],
			"translation":[
				-0.009454126469790936,
				-0.25564131140708923,
				0.23786784708499908
			]
		},
		{
			"children":[
				13
			],
			"name":"root.013"
		}
	],
	"materials":[
		{
			"alphaMode":"MASK",
			"doubleSided":true,
			"extensions":{
				"KHR_materials_specular":{
					"specularColorTexture":{
						"index":0
					}
				},
				"KHR_materials_ior":{
					"ior":1000
				}
			},
			"name":"220",
			"pbrMetallicRoughness":{
				"baseColorTexture":{
					"index":1
				},
				"metallicFactor":0,
				"metallicRoughnessTexture":{
					"index":2
				}
			}
		}
	],
	"meshes":[
		{
			"name":"mesh_id71",
			"primitives":[
				{
					"attributes":{
						"POSITION":0,
						"NORMAL":1,
						"TEXCOORD_0":2
					},
					"indices":3,
					"material":0
				}
			]
		}
	],
	"textures":[
		{
			"sampler":0,
			"source":0
		},
		{
			"sampler":0,
			"source":1
		},
		{
			"sampler":0,
			"source":2
		}
	],
	"images":[
		{
			"mimeType":"image/png",
			"name":"Image_1",
			"uri":"Image_1.png"
		},
		{
			"mimeType":"image/png",
			"name":"Image_0",
			"uri":"Image_0.png"
		},
		{
			"mimeType":"image/png",
			"name":"Image_1",
			"uri":"Image_1-1.png"
		}
	],
	"accessors":[
		{
			"bufferView":0,
			"componentType":5126,
			"count":31398,
			"max":[
				4.65740966796875,
				23.736221313476562,
				17.299739837646484
			],
			"min":[
				-3.78021240234375,
				-0.016632080078125,
				-11.035188674926758
			],
			"type":"VEC3"
		},
		{
			"bufferView":1,
			"componentType":5126,
			"count":31398,
			"type":"VEC3"
		},
		{
			"bufferView":2,
			"componentType":5126,
			"count":31398,
			"type":"VEC2"
		},
		{
			"bufferView":3,
			"componentType":5123,
			"count":165210,
			"type":"SCALAR"
		}
	],
	"bufferViews":[
		{
			"buffer":0,
			"byteLength":376776,
			"byteOffset":0,
			"target":34962
		},
		{
			"buffer":0,
			"byteLength":376776,
			"byteOffset":376776,
			"target":34962
		},
		{
			"buffer":0,
			"byteLength":251184,
			"byteOffset":753552,
			"target":34962
		},
		{
			"buffer":0,
			"byteLength":330420,
			"byteOffset":1004736,
			"target":34963
		}
	],
	"samplers":[
		{
			"magFilter":9729,
			"minFilter":9987
		}
	],
	"buffers":[
		{
			"byteLength":1335156,
			"uri":"Horse2.bin"
		}
	]
}
