{
	"asset":{
		"generator":"Khronos glTF Blender I/O v4.4.56",
		"version":"2.0"
	},
	"extensionsUsed":[
		"KHR_materials_specular",
		"KHR_materials_ior"
	],
	"scene":0,
	"scenes":[
		{
			"name":"Scene",
			"nodes":[
				0,
				2
			]
		}
	],
	"nodes":[
		{
			"name":"root"
		},
		{
			"mesh":0,
			"name":"node_id118",
			"scale":[
				0.039148103445768356,
				0.039148103445768356,
				0.039148103445768356
			],
			"translation":[
				0,
				-0.048417963087558746,
				1.3091338872909546
			]
		},
		{
			"children":[
				1
			],
			"name":"root.001"
		}
	],
	"materials":[
		{
			"alphaMode":"MASK",
			"doubleSided":true,
			"extensions":{
				"KHR_materials_specular":{
					"specularColorTexture":{
						"index":0
					}
				},
				"KHR_materials_ior":{
					"ior":1000
				}
			},
			"name":"222",
			"pbrMetallicRoughness":{
				"baseColorTexture":{
					"index":1
				},
				"metallicFactor":0,
				"metallicRoughnessTexture":{
					"index":2
				}
			}
		}
	],
	"meshes":[
		{
			"name":"mesh_id119",
			"primitives":[
				{
					"attributes":{
						"POSITION":0,
						"NORMAL":1,
						"TEXCOORD_0":2
					},
					"indices":3,
					"material":0
				}
			]
		}
	],
	"textures":[
		{
			"sampler":0,
			"source":0
		},
		{
			"sampler":0,
			"source":1
		},
		{
			"sampler":0,
			"source":2
		}
	],
	"images":[
		{
			"mimeType":"image/png",
			"name":"Image_1",
			"uri":"Image_1.png"
		},
		{
			"mimeType":"image/png",
			"name":"Image_0",
			"uri":"Image_0.png"
		},
		{
			"mimeType":"image/png",
			"name":"Image_1",
			"uri":"Image_1-1.png"
		}
	],
	"accessors":[
		{
			"bufferView":0,
			"componentType":5126,
			"count":8236,
			"max":[
				6.539268493652344,
				2.4723141193389893,
				6.147740840911865
			],
			"min":[
				-6.539268493652344,
				0.001266653649508953,
				-7.672582626342773
			],
			"type":"VEC3"
		},
		{
			"bufferView":1,
			"componentType":5126,
			"count":8236,
			"type":"VEC3"
		},
		{
			"bufferView":2,
			"componentType":5126,
			"count":8236,
			"type":"VEC2"
		},
		{
			"bufferView":3,
			"componentType":5123,
			"count":39366,
			"type":"SCALAR"
		}
	],
	"bufferViews":[
		{
			"buffer":0,
			"byteLength":98832,
			"byteOffset":0,
			"target":34962
		},
		{
			"buffer":0,
			"byteLength":98832,
			"byteOffset":98832,
			"target":34962
		},
		{
			"buffer":0,
			"byteLength":65888,
			"byteOffset":197664,
			"target":34962
		},
		{
			"buffer":0,
			"byteLength":78732,
			"byteOffset":263552,
			"target":34963
		}
	],
	"samplers":[
		{
			"magFilter":9729,
			"minFilter":9987
		}
	],
	"buffers":[
		{
			"byteLength":342284,
			"uri":"Stingray.bin"
		}
	]
}
