{
	"asset":{
		"generator":"Khronos glTF Blender I/O v4.4.56",
		"version":"2.0"
	},
	"extensionsUsed":[
		"KHR_materials_specular",
		"KHR_materials_ior"
	],
	"scene":0,
	"scenes":[
		{
			"name":"Scene",
			"nodes":[
				1
			]
		}
	],
	"nodes":[
		{
			"mesh":0,
			"name":"node_id79",
			"scale":[
				0.02288786508142948,
				0.02288786508142948,
				0.02288786508142948
			],
			"translation":[
				0.04170716181397438,
				-0.196303129196167,
				1.3965084552764893
			]
		},
		{
			"children":[
				0
			],
			"name":"root"
		}
	],
	"materials":[
		{
			"alphaMode":"MASK",
			"doubleSided":true,
			"extensions":{
				"KHR_materials_specular":{
					"specularColorTexture":{
						"index":0
					}
				},
				"KHR_materials_ior":{
					"ior":1000
				}
			},
			"name":"149",
			"pbrMetallicRoughness":{
				"baseColorTexture":{
					"index":1
				},
				"metallicFactor":0,
				"metallicRoughnessTexture":{
					"index":2
				}
			}
		}
	],
	"meshes":[
		{
			"name":"mesh_id80",
			"primitives":[
				{
					"attributes":{
						"POSITION":0,
						"NORMAL":1,
						"TEXCOORD_0":2
					},
					"indices":3,
					"material":0
				}
			]
		}
	],
	"textures":[
		{
			"sampler":0,
			"source":0
		},
		{
			"sampler":0,
			"source":1
		},
		{
			"sampler":0,
			"source":2
		}
	],
	"images":[
		{
			"mimeType":"image/png",
			"name":"Image_1",
			"uri":"Image_1.png"
		},
		{
			"mimeType":"image/png",
			"name":"Image_0",
			"uri":"Image_0.png"
		},
		{
			"mimeType":"image/png",
			"name":"Image_1",
			"uri":"Image_1-1.png"
		}
	],
	"accessors":[
		{
			"bufferView":0,
			"componentType":5126,
			"count":9880,
			"max":[
				9.362728118896484,
				17.539113998413086,
				18.39690399169922
			],
			"min":[
				-13.007205963134766,
				-0.38563281297683716,
				-21.270254135131836
			],
			"type":"VEC3"
		},
		{
			"bufferView":1,
			"componentType":5126,
			"count":9880,
			"type":"VEC3"
		},
		{
			"bufferView":2,
			"componentType":5126,
			"count":9880,
			"type":"VEC2"
		},
		{
			"bufferView":3,
			"componentType":5123,
			"count":53979,
			"type":"SCALAR"
		}
	],
	"bufferViews":[
		{
			"buffer":0,
			"byteLength":118560,
			"byteOffset":0,
			"target":34962
		},
		{
			"buffer":0,
			"byteLength":118560,
			"byteOffset":118560,
			"target":34962
		},
		{
			"buffer":0,
			"byteLength":79040,
			"byteOffset":237120,
			"target":34962
		},
		{
			"buffer":0,
			"byteLength":107958,
			"byteOffset":316160,
			"target":34963
		}
	],
	"samplers":[
		{
			"magFilter":9729,
			"minFilter":9987
		}
	],
	"buffers":[
		{
			"byteLength":424120,
			"uri":"Kio_crap.bin"
		}
	]
}
