{
	"asset":{
		"generator":"Khronos glTF Blender I/O v4.4.56",
		"version":"2.0"
	},
	"extensionsUsed":[
		"KHR_materials_specular",
		"KHR_materials_ior"
	],
	"scene":0,
	"scenes":[
		{
			"name":"Scene",
			"nodes":[
				1
			]
		}
	],
	"nodes":[
		{
			"mesh":0,
			"name":"node_id30",
			"scale":[
				0.061727143824100494,
				0.061727143824100494,
				0.061727143824100494
			],
			"translation":[
				0.08786133676767349,
				-0.25549811124801636,
				0.3649386167526245
			]
		},
		{
			"children":[
				0
			],
			"name":"root"
		}
	],
	"materials":[
		{
			"alphaMode":"MASK",
			"doubleSided":true,
			"extensions":{
				"KHR_materials_specular":{
					"specularColorTexture":{
						"index":0
					}
				},
				"KHR_materials_ior":{
					"ior":1000
				}
			},
			"name":"68",
			"pbrMetallicRoughness":{
				"baseColorTexture":{
					"index":1
				},
				"metallicFactor":0,
				"metallicRoughnessTexture":{
					"index":2
				}
			}
		}
	],
	"meshes":[
		{
			"name":"mesh_id31",
			"primitives":[
				{
					"attributes":{
						"POSITION":0,
						"NORMAL":1,
						"TEXCOORD_0":2
					},
					"indices":3,
					"material":0
				}
			]
		}
	],
	"textures":[
		{
			"sampler":0,
			"source":0
		},
		{
			"sampler":0,
			"source":1
		},
		{
			"sampler":0,
			"source":2
		}
	],
	"images":[
		{
			"mimeType":"image/png",
			"name":"Image_1",
			"uri":"Image_1.png"
		},
		{
			"mimeType":"image/png",
			"name":"Image_0",
			"uri":"Image_0.png"
		},
		{
			"mimeType":"image/png",
			"name":"Image_1",
			"uri":"Image_1-1.png"
		}
	],
	"accessors":[
		{
			"bufferView":0,
			"componentType":5126,
			"count":30177,
			"max":[
				2.032493829727173,
				8.286439895629883,
				6.890364646911621
			],
			"min":[
				-4.879258632659912,
				-0.008126974105834961,
				-5.912108898162842
			],
			"type":"VEC3"
		},
		{
			"bufferView":1,
			"componentType":5126,
			"count":30177,
			"type":"VEC3"
		},
		{
			"bufferView":2,
			"componentType":5126,
			"count":30177,
			"type":"VEC2"
		},
		{
			"bufferView":3,
			"componentType":5123,
			"count":110061,
			"type":"SCALAR"
		}
	],
	"bufferViews":[
		{
			"buffer":0,
			"byteLength":362124,
			"byteOffset":0,
			"target":34962
		},
		{
			"buffer":0,
			"byteLength":362124,
			"byteOffset":362124,
			"target":34962
		},
		{
			"buffer":0,
			"byteLength":241416,
			"byteOffset":724248,
			"target":34962
		},
		{
			"buffer":0,
			"byteLength":220122,
			"byteOffset":965664,
			"target":34963
		}
	],
	"samplers":[
		{
			"magFilter":9729,
			"minFilter":9987
		}
	],
	"buffers":[
		{
			"byteLength":1185788,
			"uri":"Raccoon.bin"
		}
	]
}
