{
	"asset":{
		"generator":"Khronos glTF Blender I/O v4.4.56",
		"version":"2.0"
	},
	"extensionsUsed":[
		"KHR_materials_specular",
		"KHR_materials_ior"
	],
	"scene":0,
	"scenes":[
		{
			"name":"Scene",
			"nodes":[
				1
			]
		}
	],
	"nodes":[
		{
			"mesh":0,
			"name":"node_id52",
			"scale":[
				0.006315634585916996,
				0.006315634585916996,
				0.006315634585916996
			],
			"translation":[
				0.00020607330952771008,
				-0.2550252676010132,
				0.3900875151157379
			]
		},
		{
			"children":[
				0
			],
			"name":"root"
		}
	],
	"materials":[
		{
			"alphaMode":"MASK",
			"doubleSided":true,
			"extensions":{
				"KHR_materials_specular":{
					"specularColorTexture":{
						"index":0
					}
				},
				"KHR_materials_ior":{
					"ior":1000
				}
			},
			"name":"116",
			"pbrMetallicRoughness":{
				"baseColorTexture":{
					"index":1
				},
				"metallicFactor":0,
				"metallicRoughnessTexture":{
					"index":2
				}
			}
		}
	],
	"meshes":[
		{
			"name":"mesh_id53",
			"primitives":[
				{
					"attributes":{
						"POSITION":0,
						"NORMAL":1,
						"TEXCOORD_0":2
					},
					"indices":3,
					"material":0
				}
			]
		}
	],
	"textures":[
		{
			"sampler":0,
			"source":0
		},
		{
			"sampler":0,
			"source":1
		},
		{
			"sampler":0,
			"source":2
		}
	],
	"images":[
		{
			"mimeType":"image/png",
			"name":"Image_1",
			"uri":"Image_1.png"
		},
		{
			"mimeType":"image/png",
			"name":"Image_0",
			"uri":"Image_0.png"
		},
		{
			"mimeType":"image/png",
			"name":"Image_1",
			"uri":"Image_1-1.png"
		}
	],
	"accessors":[
		{
			"bufferView":0,
			"componentType":5126,
			"count":17186,
			"max":[
				17.096115112304688,
				80.91435241699219,
				72.34276580810547
			],
			"min":[
				-17.1613712310791,
				-0.15429699420928955,
				-61.76521682739258
			],
			"type":"VEC3"
		},
		{
			"bufferView":1,
			"componentType":5126,
			"count":17186,
			"type":"VEC3"
		},
		{
			"bufferView":2,
			"componentType":5126,
			"count":17186,
			"type":"VEC2"
		},
		{
			"bufferView":3,
			"componentType":5123,
			"count":91452,
			"type":"SCALAR"
		}
	],
	"bufferViews":[
		{
			"buffer":0,
			"byteLength":206232,
			"byteOffset":0,
			"target":34962
		},
		{
			"buffer":0,
			"byteLength":206232,
			"byteOffset":206232,
			"target":34962
		},
		{
			"buffer":0,
			"byteLength":137488,
			"byteOffset":412464,
			"target":34962
		},
		{
			"buffer":0,
			"byteLength":182904,
			"byteOffset":549952,
			"target":34963
		}
	],
	"samplers":[
		{
			"magFilter":9729,
			"minFilter":9987
		}
	],
	"buffers":[
		{
			"byteLength":732856,
			"uri":"Gray_wolf.bin"
		}
	]
}
