{
	"asset":{
		"generator":"Khronos glTF Blender I/O v4.4.56",
		"version":"2.0"
	},
	"extensionsUsed":[
		"KHR_materials_specular",
		"KHR_materials_ior"
	],
	"scene":0,
	"scenes":[
		{
			"name":"Scene",
			"nodes":[
				1
			]
		}
	],
	"nodes":[
		{
			"mesh":0,
			"name":"node_id30",
			"scale":[
				0.003264004597440362,
				0.003264004597440362,
				0.003264004597440362
			],
			"translation":[
				0.02451125718653202,
				-0.24768874049186707,
				0.3616733253002167
			]
		},
		{
			"children":[
				0
			],
			"name":"root"
		}
	],
	"materials":[
		{
			"alphaMode":"MASK",
			"doubleSided":true,
			"extensions":{
				"KHR_materials_specular":{
					"specularColorTexture":{
						"index":0
					}
				},
				"KHR_materials_ior":{
					"ior":1000
				}
			},
			"name":"117",
			"pbrMetallicRoughness":{
				"baseColorTexture":{
					"index":1
				},
				"metallicFactor":0,
				"metallicRoughnessTexture":{
					"index":2
				}
			}
		}
	],
	"meshes":[
		{
			"name":"mesh_id31",
			"primitives":[
				{
					"attributes":{
						"POSITION":0,
						"NORMAL":1,
						"TEXCOORD_0":2
					},
					"indices":3,
					"material":0
				}
			]
		}
	],
	"textures":[
		{
			"sampler":0,
			"source":0
		},
		{
			"sampler":0,
			"source":1
		},
		{
			"sampler":0,
			"source":2
		}
	],
	"images":[
		{
			"mimeType":"image/png",
			"name":"Image_1",
			"uri":"Image_1.png"
		},
		{
			"mimeType":"image/png",
			"name":"Image_0",
			"uri":"Image_0.png"
		},
		{
			"mimeType":"image/png",
			"name":"Image_1",
			"uri":"Image_1-1.png"
		}
	],
	"accessors":[
		{
			"bufferView":0,
			"componentType":5126,
			"count":7858,
			"max":[
				62.840091705322266,
				154.31626892089844,
				121.17423248291016
			],
			"min":[
				-77.85922241210938,
				-2.5462708473205566,
				-110.80632781982422
			],
			"type":"VEC3"
		},
		{
			"bufferView":1,
			"componentType":5126,
			"count":7858,
			"type":"VEC3"
		},
		{
			"bufferView":2,
			"componentType":5126,
			"count":7858,
			"type":"VEC2"
		},
		{
			"bufferView":3,
			"componentType":5123,
			"count":7932,
			"type":"SCALAR"
		}
	],
	"bufferViews":[
		{
			"buffer":0,
			"byteLength":94296,
			"byteOffset":0,
			"target":34962
		},
		{
			"buffer":0,
			"byteLength":94296,
			"byteOffset":94296,
			"target":34962
		},
		{
			"buffer":0,
			"byteLength":62864,
			"byteOffset":188592,
			"target":34962
		},
		{
			"buffer":0,
			"byteLength":15864,
			"byteOffset":251456,
			"target":34963
		}
	],
	"samplers":[
		{
			"magFilter":9729,
			"minFilter":9987
		}
	],
	"buffers":[
		{
			"byteLength":267320,
			"uri":"panda.bin"
		}
	]
}
