{
	"asset":{
		"generator":"Khronos glTF Blender I/O v4.4.56",
		"version":"2.0"
	},
	"extensionsUsed":[
		"KHR_materials_specular",
		"KHR_materials_ior"
	],
	"scene":0,
	"scenes":[
		{
			"name":"Scene",
			"nodes":[
				1
			]
		}
	],
	"nodes":[
		{
			"mesh":0,
			"name":"node_id101",
			"scale":[
				0.16045396029949188,
				0.16045396029949188,
				0.16045396029949188
			],
			"translation":[
				0,
				-0.2557821571826935,
				0.3147335946559906
			]
		},
		{
			"children":[
				0
			],
			"name":"root"
		}
	],
	"materials":[
		{
			"alphaMode":"MASK",
			"doubleSided":true,
			"extensions":{
				"KHR_materials_specular":{
					"specularColorTexture":{
						"index":0
					}
				},
				"KHR_materials_ior":{
					"ior":1000
				}
			},
			"name":"255",
			"pbrMetallicRoughness":{
				"baseColorTexture":{
					"index":1
				},
				"metallicFactor":0,
				"metallicRoughnessTexture":{
					"index":2
				}
			}
		}
	],
	"meshes":[
		{
			"name":"mesh_id102",
			"primitives":[
				{
					"attributes":{
						"POSITION":0,
						"NORMAL":1,
						"TEXCOORD_0":2
					},
					"indices":3,
					"material":0
				}
			]
		}
	],
	"textures":[
		{
			"sampler":0,
			"source":0
		},
		{
			"sampler":0,
			"source":1
		},
		{
			"sampler":0,
			"source":2
		}
	],
	"images":[
		{
			"mimeType":"image/png",
			"name":"Image_1",
			"uri":"Image_1.png"
		},
		{
			"mimeType":"image/png",
			"name":"Image_0",
			"uri":"Image_0.png"
		},
		{
			"mimeType":"image/png",
			"name":"Image_1",
			"uri":"Image_1-1.png"
		}
	],
	"accessors":[
		{
			"bufferView":0,
			"componentType":5126,
			"count":20532,
			"max":[
				0.6071071624755859,
				3.1895904541015625,
				2.1128578186035156
			],
			"min":[
				-0.6071071624755859,
				-0.001356363296508789,
				-1.9615135192871094
			],
			"type":"VEC3"
		},
		{
			"bufferView":1,
			"componentType":5126,
			"count":20532,
			"type":"VEC3"
		},
		{
			"bufferView":2,
			"componentType":5126,
			"count":20532,
			"type":"VEC2"
		},
		{
			"bufferView":3,
			"componentType":5123,
			"count":112608,
			"type":"SCALAR"
		}
	],
	"bufferViews":[
		{
			"buffer":0,
			"byteLength":246384,
			"byteOffset":0,
			"target":34962
		},
		{
			"buffer":0,
			"byteLength":246384,
			"byteOffset":246384,
			"target":34962
		},
		{
			"buffer":0,
			"byteLength":164256,
			"byteOffset":492768,
			"target":34962
		},
		{
			"buffer":0,
			"byteLength":225216,
			"byteOffset":657024,
			"target":34963
		}
	],
	"samplers":[
		{
			"magFilter":9729,
			"minFilter":9987
		}
	],
	"buffers":[
		{
			"byteLength":882240,
			"uri":"cat.bin"
		}
	]
}
