{
	"asset":{
		"generator":"Khronos glTF Blender I/O v4.4.56",
		"version":"2.0"
	},
	"extensionsUsed":[
		"KHR_materials_specular",
		"KHR_materials_ior"
	],
	"scene":0,
	"scenes":[
		{
			"name":"Scene",
			"nodes":[
				0,
				7
			]
		}
	],
	"nodes":[
		{
			"name":"root"
		},
		{
			"name":"node_id47"
		},
		{
			"children":[
				1
			],
			"name":"node_id46",
			"scale":[
				0.009999999776482582,
				0.009999999776482582,
				0.009999999776482582
			]
		},
		{
			"children":[
				2
			],
			"name":"node_id45"
		},
		{
			"children":[
				3
			],
			"name":"node_id44"
		},
		{
			"children":[
				4
			],
			"name":"node_id43",
			"scale":[
				0.0010000000474974513,
				0.0010000000474974513,
				0.0010000000474974513
			]
		},
		{
			"mesh":0,
			"name":"node_id52",
			"scale":[
				0.13099077343940735,
				0.13099077343940735,
				0.13099077343940735
			],
			"translation":[
				0,
				-0.2382575422525406,
				0.7097419500350952
			]
		},
		{
			"children":[
				5,
				6
			],
			"name":"root.001"
		}
	],
	"materials":[
		{
			"alphaMode":"MASK",
			"doubleSided":true,
			"extensions":{
				"KHR_materials_specular":{
					"specularColorTexture":{
						"index":0
					}
				},
				"KHR_materials_ior":{
					"ior":1000
				}
			},
			"name":"295",
			"pbrMetallicRoughness":{
				"baseColorTexture":{
					"index":1
				},
				"metallicFactor":0,
				"metallicRoughnessTexture":{
					"index":2
				}
			}
		}
	],
	"meshes":[
		{
			"name":"mesh_id53",
			"primitives":[
				{
					"attributes":{
						"POSITION":0,
						"NORMAL":1,
						"TEXCOORD_0":2
					},
					"indices":3,
					"material":0
				}
			]
		}
	],
	"textures":[
		{
			"sampler":0,
			"source":0
		},
		{
			"sampler":0,
			"source":1
		},
		{
			"sampler":0,
			"source":2
		}
	],
	"images":[
		{
			"mimeType":"image/png",
			"name":"Image_1",
			"uri":"Image_1.png"
		},
		{
			"mimeType":"image/png",
			"name":"Image_0",
			"uri":"Image_0.png"
		},
		{
			"mimeType":"image/png",
			"name":"Image_1",
			"uri":"Image_1-1.png"
		}
	],
	"accessors":[
		{
			"bufferView":0,
			"componentType":5126,
			"count":42979,
			"max":[
				1.954336166381836,
				3.6377792358398438,
				3.5895934104919434
			],
			"min":[
				-1.954336166381836,
				0,
				-5.418251991271973
			],
			"type":"VEC3"
		},
		{
			"bufferView":1,
			"componentType":5126,
			"count":42979,
			"type":"VEC3"
		},
		{
			"bufferView":2,
			"componentType":5126,
			"count":42979,
			"type":"VEC2"
		},
		{
			"bufferView":3,
			"componentType":5123,
			"count":210990,
			"type":"SCALAR"
		}
	],
	"bufferViews":[
		{
			"buffer":0,
			"byteLength":515748,
			"byteOffset":0,
			"target":34962
		},
		{
			"buffer":0,
			"byteLength":515748,
			"byteOffset":515748,
			"target":34962
		},
		{
			"buffer":0,
			"byteLength":343832,
			"byteOffset":1031496,
			"target":34962
		},
		{
			"buffer":0,
			"byteLength":421980,
			"byteOffset":1375328,
			"target":34963
		}
	],
	"samplers":[
		{
			"magFilter":9729,
			"minFilter":9987
		}
	],
	"buffers":[
		{
			"byteLength":1797308,
			"uri":"Mantis_shrimp.bin"
		}
	]
}
