{
	"asset":{
		"generator":"Khronos glTF Blender I/O v4.4.56",
		"version":"2.0"
	},
	"extensionsUsed":[
		"KHR_materials_specular",
		"KHR_materials_ior"
	],
	"scene":0,
	"scenes":[
		{
			"name":"Scene",
			"nodes":[
				0,
				1,
				2,
				4
			]
		}
	],
	"nodes":[
		{
			"name":"root"
		},
		{
			"name":"root.001"
		},
		{
			"name":"root.002"
		},
		{
			"mesh":0,
			"name":"node_id30",
			"scale":[
				0.07543729990720749,
				0.07543729990720749,
				0.07543729990720749
			],
			"translation":[
				-0.033835750073194504,
				-0.25515908002853394,
				0.160542830824852
			]
		},
		{
			"children":[
				3
			],
			"name":"root.003"
		}
	],
	"materials":[
		{
			"alphaMode":"MASK",
			"doubleSided":true,
			"extensions":{
				"KHR_materials_specular":{
					"specularColorTexture":{
						"index":0
					}
				},
				"KHR_materials_ior":{
					"ior":1000
				}
			},
			"name":"55",
			"pbrMetallicRoughness":{
				"baseColorTexture":{
					"index":1
				},
				"metallicFactor":0,
				"metallicRoughnessTexture":{
					"index":2
				}
			}
		}
	],
	"meshes":[
		{
			"name":"mesh_id31",
			"primitives":[
				{
					"attributes":{
						"POSITION":0,
						"NORMAL":1,
						"TEXCOORD_0":2
					},
					"indices":3,
					"material":0
				}
			]
		}
	],
	"textures":[
		{
			"sampler":0,
			"source":0
		},
		{
			"sampler":0,
			"source":1
		},
		{
			"sampler":0,
			"source":2
		}
	],
	"images":[
		{
			"mimeType":"image/png",
			"name":"Image_1",
			"uri":"Image_1.png"
		},
		{
			"mimeType":"image/png",
			"name":"Image_0",
			"uri":"Image_0.png"
		},
		{
			"mimeType":"image/png",
			"name":"Image_1",
			"uri":"Image_1-1.png"
		}
	],
	"accessors":[
		{
			"bufferView":0,
			"componentType":5126,
			"count":9531,
			"max":[
				2.438467025756836,
				6.775949001312256,
				3.775106906890869
			],
			"min":[
				-1.54141104221344,
				-0.01114455983042717,
				-1.244312047958374
			],
			"type":"VEC3"
		},
		{
			"bufferView":1,
			"componentType":5126,
			"count":9531,
			"type":"VEC3"
		},
		{
			"bufferView":2,
			"componentType":5126,
			"count":9531,
			"type":"VEC2"
		},
		{
			"bufferView":3,
			"componentType":5123,
			"count":49392,
			"type":"SCALAR"
		}
	],
	"bufferViews":[
		{
			"buffer":0,
			"byteLength":114372,
			"byteOffset":0,
			"target":34962
		},
		{
			"buffer":0,
			"byteLength":114372,
			"byteOffset":114372,
			"target":34962
		},
		{
			"buffer":0,
			"byteLength":76248,
			"byteOffset":228744,
			"target":34962
		},
		{
			"buffer":0,
			"byteLength":98784,
			"byteOffset":304992,
			"target":34963
		}
	],
	"samplers":[
		{
			"magFilter":9729,
			"minFilter":9987
		}
	],
	"buffers":[
		{
			"byteLength":403776,
			"uri":"reindeer.bin"
		}
	]
}
