{
	"asset":{
		"generator":"Khronos glTF Blender I/O v4.4.56",
		"version":"2.0"
	},
	"extensionsUsed":[
		"KHR_materials_specular",
		"KHR_materials_ior"
	],
	"scene":0,
	"scenes":[
		{
			"name":"Scene",
			"nodes":[
				0,
				1,
				2,
				3,
				4,
				5,
				6,
				7,
				9
			]
		}
	],
	"nodes":[
		{
			"name":"root"
		},
		{
			"name":"root.001"
		},
		{
			"name":"root.002"
		},
		{
			"name":"root.003"
		},
		{
			"name":"root.004"
		},
		{
			"name":"root.005"
		},
		{
			"name":"root.006"
		},
		{
			"name":"root.007"
		},
		{
			"mesh":0,
			"name":"node_id74",
			"scale":[
				0.1064816266298294,
				0.1064816266298294,
				0.1064816266298294
			],
			"translation":[
				0,
				-0.2559998035430908,
				0.4754070043563843
			]
		},
		{
			"children":[
				8
			],
			"name":"root.008"
		}
	],
	"materials":[
		{
			"alphaMode":"MASK",
			"doubleSided":true,
			"extensions":{
				"KHR_materials_specular":{
					"specularColorTexture":{
						"index":0
					}
				},
				"KHR_materials_ior":{
					"ior":1000
				}
			},
			"name":"121",
			"pbrMetallicRoughness":{
				"baseColorTexture":{
					"index":1
				},
				"metallicFactor":0,
				"metallicRoughnessTexture":{
					"index":2
				}
			}
		}
	],
	"meshes":[
		{
			"name":"mesh_id75",
			"primitives":[
				{
					"attributes":{
						"POSITION":0,
						"NORMAL":1,
						"TEXCOORD_0":2
					},
					"indices":3,
					"material":0
				}
			]
		}
	],
	"textures":[
		{
			"sampler":0,
			"source":0
		},
		{
			"sampler":0,
			"source":1
		},
		{
			"sampler":0,
			"source":2
		}
	],
	"images":[
		{
			"mimeType":"image/png",
			"name":"Image_1",
			"uri":"Image_1.png"
		},
		{
			"mimeType":"image/png",
			"name":"Image_0",
			"uri":"Image_0.png"
		},
		{
			"mimeType":"image/png",
			"name":"Image_1",
			"uri":"Image_1-1.png"
		}
	],
	"accessors":[
		{
			"bufferView":0,
			"componentType":5126,
			"count":28184,
			"max":[
				0.5870527029037476,
				4.808341026306152,
				1.7858052253723145
			],
			"min":[
				-0.5870527029037476,
				0,
				-4.464676380157471
			],
			"type":"VEC3"
		},
		{
			"bufferView":1,
			"componentType":5126,
			"count":28184,
			"type":"VEC3"
		},
		{
			"bufferView":2,
			"componentType":5126,
			"count":28184,
			"type":"VEC2"
		},
		{
			"bufferView":3,
			"componentType":5123,
			"count":163026,
			"type":"SCALAR"
		}
	],
	"bufferViews":[
		{
			"buffer":0,
			"byteLength":338208,
			"byteOffset":0,
			"target":34962
		},
		{
			"buffer":0,
			"byteLength":338208,
			"byteOffset":338208,
			"target":34962
		},
		{
			"buffer":0,
			"byteLength":225472,
			"byteOffset":676416,
			"target":34962
		},
		{
			"buffer":0,
			"byteLength":326052,
			"byteOffset":901888,
			"target":34963
		}
	],
	"samplers":[
		{
			"magFilter":9729,
			"minFilter":9987
		}
	],
	"buffers":[
		{
			"byteLength":1227940,
			"uri":"angel_fish2.bin"
		}
	]
}
