{
	"asset":{
		"generator":"Khronos glTF Blender I/O v4.4.56",
		"version":"2.0"
	},
	"extensionsUsed":[
		"KHR_materials_specular",
		"KHR_materials_ior"
	],
	"scene":0,
	"scenes":[
		{
			"name":"Scene",
			"nodes":[
				0,
				2
			]
		}
	],
	"nodes":[
		{
			"name":"root"
		},
		{
			"mesh":0,
			"name":"node_id37",
			"scale":[
				0.06576775014400482,
				0.06576775014400482,
				0.06576775014400482
			],
			"translation":[
				-0.0053480202332139015,
				-0.10685405135154724,
				1.0618592500686646
			]
		},
		{
			"children":[
				1
			],
			"name":"root.001"
		}
	],
	"materials":[
		{
			"alphaMode":"MASK",
			"doubleSided":true,
			"extensions":{
				"KHR_materials_specular":{
					"specularColorTexture":{
						"index":0
					}
				},
				"KHR_materials_ior":{
					"ior":1000
				}
			},
			"name":"55",
			"pbrMetallicRoughness":{
				"baseColorTexture":{
					"index":1
				},
				"metallicFactor":0,
				"metallicRoughnessTexture":{
					"index":2
				}
			}
		}
	],
	"meshes":[
		{
			"name":"mesh_id38",
			"primitives":[
				{
					"attributes":{
						"POSITION":0,
						"NORMAL":1,
						"TEXCOORD_0":2
					},
					"indices":3,
					"material":0
				}
			]
		}
	],
	"textures":[
		{
			"sampler":0,
			"source":0
		},
		{
			"sampler":0,
			"source":1
		},
		{
			"sampler":0,
			"source":2
		}
	],
	"images":[
		{
			"mimeType":"image/png",
			"name":"Image_1",
			"uri":"Image_1.png"
		},
		{
			"mimeType":"image/png",
			"name":"Image_0",
			"uri":"Image_0.png"
		},
		{
			"mimeType":"image/png",
			"name":"Image_1",
			"uri":"Image_1-1.png"
		}
	],
	"accessors":[
		{
			"bufferView":0,
			"componentType":5126,
			"count":30701,
			"max":[
				3.9738025665283203,
				3.293004274368286,
				4.036214828491211
			],
			"min":[
				-3.811168909072876,
				-0.043562568724155426,
				-4.246215343475342
			],
			"type":"VEC3"
		},
		{
			"bufferView":1,
			"componentType":5126,
			"count":30701,
			"type":"VEC3"
		},
		{
			"bufferView":2,
			"componentType":5126,
			"count":30701,
			"type":"VEC2"
		},
		{
			"bufferView":3,
			"componentType":5123,
			"count":176736,
			"type":"SCALAR"
		}
	],
	"bufferViews":[
		{
			"buffer":0,
			"byteLength":368412,
			"byteOffset":0,
			"target":34962
		},
		{
			"buffer":0,
			"byteLength":368412,
			"byteOffset":368412,
			"target":34962
		},
		{
			"buffer":0,
			"byteLength":245608,
			"byteOffset":736824,
			"target":34962
		},
		{
			"buffer":0,
			"byteLength":353472,
			"byteOffset":982432,
			"target":34963
		}
	],
	"samplers":[
		{
			"magFilter":9729,
			"minFilter":9987
		}
	],
	"buffers":[
		{
			"byteLength":1335904,
			"uri":"octopus.bin"
		}
	]
}
