{
	"asset":{
		"generator":"Khronos glTF Blender I/O v4.4.56",
		"version":"2.0"
	},
	"extensionsUsed":[
		"KHR_materials_specular",
		"KHR_materials_ior"
	],
	"scene":0,
	"scenes":[
		{
			"name":"Scene",
			"nodes":[
				1
			]
		}
	],
	"nodes":[
		{
			"mesh":0,
			"name":"node_id30",
			"scale":[
				0.025054289028048515,
				0.025054289028048515,
				0.025054289028048515
			],
			"translation":[
				-0.005539154168218374,
				-0.25134554505348206,
				0.6900728344917297
			]
		},
		{
			"children":[
				0
			],
			"name":"root"
		}
	],
	"materials":[
		{
			"alphaMode":"MASK",
			"doubleSided":true,
			"extensions":{
				"KHR_materials_specular":{
					"specularColorTexture":{
						"index":0
					}
				},
				"KHR_materials_ior":{
					"ior":1000
				}
			},
			"name":"92",
			"pbrMetallicRoughness":{
				"baseColorTexture":{
					"index":1
				},
				"metallicFactor":0,
				"metallicRoughnessTexture":{
					"index":2
				}
			}
		}
	],
	"meshes":[
		{
			"name":"mesh_id31",
			"primitives":[
				{
					"attributes":{
						"POSITION":0,
						"NORMAL":1,
						"TEXCOORD_0":2
					},
					"indices":3,
					"material":0
				}
			]
		}
	],
	"textures":[
		{
			"sampler":0,
			"source":0
		},
		{
			"sampler":0,
			"source":1
		},
		{
			"sampler":0,
			"source":2
		}
	],
	"images":[
		{
			"mimeType":"image/png",
			"name":"Image_1",
			"uri":"Image_1.png"
		},
		{
			"mimeType":"image/png",
			"name":"Image_0",
			"uri":"Image_0.png"
		},
		{
			"mimeType":"image/png",
			"name":"Image_1",
			"uri":"Image_1-1.png"
		}
	],
	"accessors":[
		{
			"bufferView":0,
			"componentType":5126,
			"count":15204,
			"max":[
				11.666057586669922,
				20.322845458984375,
				26.398090362548828
			],
			"min":[
				-6.223364353179932,
				-0.11277985572814941,
				-27.543067932128906
			],
			"type":"VEC3"
		},
		{
			"bufferView":1,
			"componentType":5126,
			"count":15204,
			"type":"VEC3"
		},
		{
			"bufferView":2,
			"componentType":5126,
			"count":15204,
			"type":"VEC2"
		},
		{
			"bufferView":3,
			"componentType":5123,
			"count":77028,
			"type":"SCALAR"
		}
	],
	"bufferViews":[
		{
			"buffer":0,
			"byteLength":182448,
			"byteOffset":0,
			"target":34962
		},
		{
			"buffer":0,
			"byteLength":182448,
			"byteOffset":182448,
			"target":34962
		},
		{
			"buffer":0,
			"byteLength":121632,
			"byteOffset":364896,
			"target":34962
		},
		{
			"buffer":0,
			"byteLength":154056,
			"byteOffset":486528,
			"target":34963
		}
	],
	"samplers":[
		{
			"magFilter":9729,
			"minFilter":9987
		}
	],
	"buffers":[
		{
			"byteLength":640584,
			"uri":"ferret.bin"
		}
	]
}
