{
	"asset":{
		"generator":"Khronos glTF Blender I/O v4.4.56",
		"version":"2.0"
	},
	"extensionsUsed":[
		"KHR_materials_specular",
		"KHR_materials_ior"
	],
	"scene":0,
	"scenes":[
		{
			"name":"Scene",
			"nodes":[
				0,
				1,
				3
			]
		}
	],
	"nodes":[
		{
			"name":"root"
		},
		{
			"name":"root.001"
		},
		{
			"mesh":0,
			"name":"node_id60",
			"scale":[
				0.06547017395496368,
				0.06547017395496368,
				0.06547017395496368
			],
			"translation":[
				2.6804105800692923e-05,
				-0.15789911150932312,
				0.26572147011756897
			]
		},
		{
			"children":[
				2
			],
			"name":"root.002"
		}
	],
	"materials":[
		{
			"alphaMode":"MASK",
			"doubleSided":true,
			"extensions":{
				"KHR_materials_specular":{
					"specularColorTexture":{
						"index":0
					}
				},
				"KHR_materials_ior":{
					"ior":1000
				}
			},
			"name":"82",
			"pbrMetallicRoughness":{
				"baseColorTexture":{
					"index":1
				},
				"metallicFactor":0,
				"metallicRoughnessTexture":{
					"index":2
				}
			}
		}
	],
	"meshes":[
		{
			"name":"mesh_id61",
			"primitives":[
				{
					"attributes":{
						"POSITION":0,
						"NORMAL":1,
						"TEXCOORD_0":2
					},
					"indices":3,
					"material":0
				}
			]
		}
	],
	"textures":[
		{
			"sampler":0,
			"source":0
		},
		{
			"sampler":0,
			"source":1
		},
		{
			"sampler":0,
			"source":2
		}
	],
	"images":[
		{
			"mimeType":"image/png",
			"name":"Image_1",
			"uri":"Image_1.png"
		},
		{
			"mimeType":"image/png",
			"name":"Image_0",
			"uri":"Image_0.png"
		},
		{
			"mimeType":"image/png",
			"name":"Image_1",
			"uri":"Image_1-1.png"
		}
	],
	"accessors":[
		{
			"bufferView":0,
			"componentType":5126,
			"count":6082,
			"max":[
				3.9097683429718018,
				4.823540687561035,
				2.0396199226379395
			],
			"min":[
				-3.9105870723724365,
				9.473413228988647e-06,
				-2.336564540863037
			],
			"type":"VEC3"
		},
		{
			"bufferView":1,
			"componentType":5126,
			"count":6082,
			"type":"VEC3"
		},
		{
			"bufferView":2,
			"componentType":5126,
			"count":6082,
			"type":"VEC2"
		},
		{
			"bufferView":3,
			"componentType":5123,
			"count":31203,
			"type":"SCALAR"
		}
	],
	"bufferViews":[
		{
			"buffer":0,
			"byteLength":72984,
			"byteOffset":0,
			"target":34962
		},
		{
			"buffer":0,
			"byteLength":72984,
			"byteOffset":72984,
			"target":34962
		},
		{
			"buffer":0,
			"byteLength":48656,
			"byteOffset":145968,
			"target":34962
		},
		{
			"buffer":0,
			"byteLength":62406,
			"byteOffset":194624,
			"target":34963
		}
	],
	"samplers":[
		{
			"magFilter":9729,
			"minFilter":9987
		}
	],
	"buffers":[
		{
			"byteLength":257032,
			"uri":"Hummingbird.bin"
		}
	]
}
