{
	"asset":{
		"generator":"Khronos glTF Blender I/O v4.4.56",
		"version":"2.0"
	},
	"extensionsUsed":[
		"KHR_materials_specular",
		"KHR_materials_ior"
	],
	"scene":0,
	"scenes":[
		{
			"name":"Scene",
			"nodes":[
				0,
				1,
				2,
				3,
				4,
				5,
				6,
				7,
				8,
				10
			]
		}
	],
	"nodes":[
		{
			"name":"root"
		},
		{
			"name":"root.001"
		},
		{
			"name":"root.002"
		},
		{
			"name":"root.003"
		},
		{
			"name":"root.004"
		},
		{
			"name":"root.005"
		},
		{
			"name":"root.006"
		},
		{
			"name":"root.007"
		},
		{
			"name":"root.008"
		},
		{
			"mesh":0,
			"name":"node_id38",
			"scale":[
				0.15726564824581146,
				0.15726564824581146,
				0.15726564824581146
			],
			"translation":[
				0,
				-0.25623819231987,
				0.33635106682777405
			]
		},
		{
			"children":[
				9
			],
			"name":"root.009"
		}
	],
	"materials":[
		{
			"alphaMode":"MASK",
			"doubleSided":true,
			"extensions":{
				"KHR_materials_specular":{
					"specularColorTexture":{
						"index":0
					}
				},
				"KHR_materials_ior":{
					"ior":1000
				}
			},
			"name":"174",
			"pbrMetallicRoughness":{
				"baseColorTexture":{
					"index":1
				},
				"metallicFactor":0,
				"metallicRoughnessTexture":{
					"index":2
				}
			}
		}
	],
	"meshes":[
		{
			"name":"mesh_id39.002",
			"primitives":[
				{
					"attributes":{
						"POSITION":0,
						"NORMAL":1,
						"TEXCOORD_0":2
					},
					"indices":3,
					"material":0
				}
			]
		}
	],
	"textures":[
		{
			"sampler":0,
			"source":0
		},
		{
			"sampler":0,
			"source":1
		},
		{
			"sampler":0,
			"source":2
		}
	],
	"images":[
		{
			"mimeType":"image/png",
			"name":"Image_1",
			"uri":"Image_1.png"
		},
		{
			"mimeType":"image/png",
			"name":"Image_0",
			"uri":"Image_0.png"
		},
		{
			"mimeType":"image/png",
			"name":"Image_1",
			"uri":"Image_1-1.png"
		}
	],
	"accessors":[
		{
			"bufferView":0,
			"componentType":5126,
			"count":11244,
			"max":[
				1.102351427078247,
				3.2571539878845215,
				2.2559828758239746
			],
			"min":[
				-1.102351427078247,
				0.0015158653259277344,
				-2.1387386322021484
			],
			"type":"VEC3"
		},
		{
			"bufferView":1,
			"componentType":5126,
			"count":11244,
			"type":"VEC3"
		},
		{
			"bufferView":2,
			"componentType":5126,
			"count":11244,
			"type":"VEC2"
		},
		{
			"bufferView":3,
			"componentType":5123,
			"count":65010,
			"type":"SCALAR"
		}
	],
	"bufferViews":[
		{
			"buffer":0,
			"byteLength":134928,
			"byteOffset":0,
			"target":34962
		},
		{
			"buffer":0,
			"byteLength":134928,
			"byteOffset":134928,
			"target":34962
		},
		{
			"buffer":0,
			"byteLength":89952,
			"byteOffset":269856,
			"target":34962
		},
		{
			"buffer":0,
			"byteLength":130020,
			"byteOffset":359808,
			"target":34963
		}
	],
	"samplers":[
		{
			"magFilter":9729,
			"minFilter":9987
		}
	],
	"buffers":[
		{
			"byteLength":489828,
			"uri":"angel_fish3.bin"
		}
	]
}
