{
	"asset":{
		"generator":"Khronos glTF Blender I/O v4.4.56",
		"version":"2.0"
	},
	"extensionsUsed":[
		"KHR_materials_specular",
		"KHR_materials_ior"
	],
	"scene":0,
	"scenes":[
		{
			"name":"Scene",
			"nodes":[
				1
			]
		}
	],
	"nodes":[
		{
			"mesh":0,
			"name":"node_id30",
			"scale":[
				0.1009063571691513,
				0.1009063571691513,
				0.1009063571691513
			],
			"translation":[
				0,
				-0.25508636236190796,
				0.2716180384159088
			]
		},
		{
			"children":[
				0
			],
			"name":"root"
		}
	],
	"materials":[
		{
			"alphaMode":"MASK",
			"doubleSided":true,
			"extensions":{
				"KHR_materials_specular":{
					"specularColorTexture":{
						"index":0
					}
				},
				"KHR_materials_ior":{
					"ior":1000
				}
			},
			"name":"270",
			"pbrMetallicRoughness":{
				"baseColorTexture":{
					"index":1
				},
				"metallicFactor":0,
				"metallicRoughnessTexture":{
					"index":2
				}
			}
		}
	],
	"meshes":[
		{
			"name":"mesh_id31",
			"primitives":[
				{
					"attributes":{
						"POSITION":0,
						"NORMAL":1,
						"TEXCOORD_0":2
					},
					"indices":3,
					"material":0
				}
			]
		}
	],
	"textures":[
		{
			"sampler":0,
			"source":0
		},
		{
			"sampler":0,
			"source":1
		},
		{
			"sampler":0,
			"source":2
		}
	],
	"images":[
		{
			"mimeType":"image/png",
			"name":"Image_1",
			"uri":"Image_1.png"
		},
		{
			"mimeType":"image/png",
			"name":"Image_0",
			"uri":"Image_0.png"
		},
		{
			"mimeType":"image/png",
			"name":"Image_1",
			"uri":"Image_1-1.png"
		}
	],
	"accessors":[
		{
			"bufferView":0,
			"componentType":5126,
			"count":34043,
			"max":[
				0.971393346786499,
				5.064959526062012,
				3.649531364440918
			],
			"min":[
				-0.971393346786499,
				-0.009052040055394173,
				-2.6917734146118164
			],
			"type":"VEC3"
		},
		{
			"bufferView":1,
			"componentType":5126,
			"count":34043,
			"type":"VEC3"
		},
		{
			"bufferView":2,
			"componentType":5126,
			"count":34043,
			"type":"VEC2"
		},
		{
			"bufferView":3,
			"componentType":5123,
			"count":182703,
			"type":"SCALAR"
		}
	],
	"bufferViews":[
		{
			"buffer":0,
			"byteLength":408516,
			"byteOffset":0,
			"target":34962
		},
		{
			"buffer":0,
			"byteLength":408516,
			"byteOffset":408516,
			"target":34962
		},
		{
			"buffer":0,
			"byteLength":272344,
			"byteOffset":817032,
			"target":34962
		},
		{
			"buffer":0,
			"byteLength":365406,
			"byteOffset":1089376,
			"target":34963
		}
	],
	"samplers":[
		{
			"magFilter":9729,
			"minFilter":9987
		}
	],
	"buffers":[
		{
			"byteLength":1454784,
			"uri":"Himalayan_mountain_goat.bin"
		}
	]
}
