{
	"asset":{
		"generator":"Khronos glTF Blender I/O v4.4.56",
		"version":"2.0"
	},
	"extensionsUsed":[
		"KHR_materials_specular",
		"KHR_materials_ior"
	],
	"scene":0,
	"scenes":[
		{
			"name":"Scene",
			"nodes":[
				0,
				2
			]
		}
	],
	"nodes":[
		{
			"name":"root"
		},
		{
			"mesh":0,
			"name":"node_id45",
			"scale":[
				0.052290622144937515,
				0.052290622144937515,
				0.052290622144937515
			],
			"translation":[
				0,
				-0.08080081641674042,
				0.5863540172576904
			]
		},
		{
			"children":[
				1
			],
			"name":"root.001"
		}
	],
	"materials":[
		{
			"alphaMode":"MASK",
			"doubleSided":true,
			"extensions":{
				"KHR_materials_specular":{
					"specularColorTexture":{
						"index":0
					}
				},
				"KHR_materials_ior":{
					"ior":1000
				}
			},
			"name":"67",
			"pbrMetallicRoughness":{
				"baseColorTexture":{
					"index":1
				},
				"metallicFactor":0,
				"metallicRoughnessTexture":{
					"index":2
				}
			}
		}
	],
	"meshes":[
		{
			"name":"mesh_id46",
			"primitives":[
				{
					"attributes":{
						"POSITION":0,
						"NORMAL":1,
						"TEXCOORD_0":2
					},
					"indices":3,
					"material":0
				}
			]
		}
	],
	"textures":[
		{
			"sampler":0,
			"source":0
		},
		{
			"sampler":0,
			"source":1
		},
		{
			"sampler":0,
			"source":2
		}
	],
	"images":[
		{
			"mimeType":"image/png",
			"name":"Image_1",
			"uri":"Image_1.png"
		},
		{
			"mimeType":"image/png",
			"name":"Image_0",
			"uri":"Image_0.png"
		},
		{
			"mimeType":"image/png",
			"name":"Image_1",
			"uri":"Image_1-1.png"
		}
	],
	"accessors":[
		{
			"bufferView":0,
			"componentType":5126,
			"count":11120,
			"max":[
				4.895715713500977,
				3.0904595851898193,
				5.837499618530273
			],
			"min":[
				-4.895715713500977,
				0,
				-5.837499618530273
			],
			"type":"VEC3"
		},
		{
			"bufferView":1,
			"componentType":5126,
			"count":11120,
			"type":"VEC3"
		},
		{
			"bufferView":2,
			"componentType":5126,
			"count":11120,
			"type":"VEC2"
		},
		{
			"bufferView":3,
			"componentType":5123,
			"count":64605,
			"type":"SCALAR"
		}
	],
	"bufferViews":[
		{
			"buffer":0,
			"byteLength":133440,
			"byteOffset":0,
			"target":34962
		},
		{
			"buffer":0,
			"byteLength":133440,
			"byteOffset":133440,
			"target":34962
		},
		{
			"buffer":0,
			"byteLength":88960,
			"byteOffset":266880,
			"target":34962
		},
		{
			"buffer":0,
			"byteLength":129210,
			"byteOffset":355840,
			"target":34963
		}
	],
	"samplers":[
		{
			"magFilter":9729,
			"minFilter":9987
		}
	],
	"buffers":[
		{
			"byteLength":485052,
			"uri":"jellyfish.bin"
		}
	]
}
