{
	"asset":{
		"generator":"Khronos glTF Blender I/O v4.4.56",
		"version":"2.0"
	},
	"extensionsUsed":[
		"KHR_materials_specular",
		"KHR_materials_ior"
	],
	"scene":0,
	"scenes":[
		{
			"name":"Scene",
			"nodes":[
				0,
				1,
				2,
				3,
				4,
				5,
				6,
				8
			]
		}
	],
	"nodes":[
		{
			"name":"root"
		},
		{
			"name":"root.001"
		},
		{
			"name":"root.002"
		},
		{
			"name":"root.003"
		},
		{
			"name":"root.004"
		},
		{
			"name":"root.005"
		},
		{
			"name":"root.006"
		},
		{
			"mesh":0,
			"name":"node_id66",
			"scale":[
				0.02841622568666935,
				0.02841622568666935,
				0.02841622568666935
			],
			"translation":[
				1.916571636684239e-05,
				-0.2560233175754547,
				0.26577186584472656
			]
		},
		{
			"children":[
				7
			],
			"name":"root.007"
		}
	],
	"materials":[
		{
			"alphaMode":"MASK",
			"doubleSided":true,
			"extensions":{
				"KHR_materials_specular":{
					"specularColorTexture":{
						"index":0
					}
				},
				"KHR_materials_ior":{
					"ior":1000
				}
			},
			"name":"109",
			"pbrMetallicRoughness":{
				"baseColorTexture":{
					"index":1
				},
				"metallicFactor":0,
				"metallicRoughnessTexture":{
					"index":2
				}
			}
		}
	],
	"meshes":[
		{
			"name":"mesh_id67",
			"primitives":[
				{
					"attributes":{
						"POSITION":0,
						"NORMAL":1,
						"TEXCOORD_0":2
					},
					"indices":3,
					"material":0
				}
			]
		}
	],
	"textures":[
		{
			"sampler":0,
			"source":0
		},
		{
			"sampler":0,
			"source":1
		},
		{
			"sampler":0,
			"source":2
		}
	],
	"images":[
		{
			"mimeType":"image/png",
			"name":"Image_1",
			"uri":"Image_1.png"
		},
		{
			"mimeType":"image/png",
			"name":"Image_0",
			"uri":"Image_0.png"
		},
		{
			"mimeType":"image/png",
			"name":"Image_1",
			"uri":"Image_1-1.png"
		}
	],
	"accessors":[
		{
			"bufferView":0,
			"componentType":5126,
			"count":20862,
			"max":[
				2.039334774017334,
				18.01870346069336,
				4.1272807121276855
			],
			"min":[
				-2.0406839847564697,
				0.0008286916418001056,
				-4.814978122711182
			],
			"type":"VEC3"
		},
		{
			"bufferView":1,
			"componentType":5126,
			"count":20862,
			"type":"VEC3"
		},
		{
			"bufferView":2,
			"componentType":5126,
			"count":20862,
			"type":"VEC2"
		},
		{
			"bufferView":3,
			"componentType":5123,
			"count":119328,
			"type":"SCALAR"
		}
	],
	"bufferViews":[
		{
			"buffer":0,
			"byteLength":250344,
			"byteOffset":0,
			"target":34962
		},
		{
			"buffer":0,
			"byteLength":250344,
			"byteOffset":250344,
			"target":34962
		},
		{
			"buffer":0,
			"byteLength":166896,
			"byteOffset":500688,
			"target":34962
		},
		{
			"buffer":0,
			"byteLength":238656,
			"byteOffset":667584,
			"target":34963
		}
	],
	"samplers":[
		{
			"magFilter":9729,
			"minFilter":9987
		}
	],
	"buffers":[
		{
			"byteLength":906240,
			"uri":"flamingo.bin"
		}
	]
}
