{
	"asset":{
		"generator":"Khronos glTF Blender I/O v4.4.56",
		"version":"2.0"
	},
	"extensionsUsed":[
		"KHR_materials_specular",
		"KHR_materials_ior"
	],
	"scene":0,
	"scenes":[
		{
			"name":"Scene",
			"nodes":[
				0,
				7
			]
		}
	],
	"nodes":[
		{
			"name":"root"
		},
		{
			"name":"node_id47"
		},
		{
			"children":[
				1
			],
			"name":"node_id46",
			"scale":[
				0.009999999776482582,
				0.009999999776482582,
				0.009999999776482582
			]
		},
		{
			"children":[
				2
			],
			"name":"node_id45"
		},
		{
			"children":[
				3
			],
			"name":"node_id44"
		},
		{
			"children":[
				4
			],
			"name":"node_id43",
			"scale":[
				0.0010000000474974513,
				0.0010000000474974513,
				0.0010000000474974513
			]
		},
		{
			"mesh":0,
			"name":"node_id52",
			"scale":[
				0.024808593094348907,
				0.024808593094348907,
				0.024808593094348907
			],
			"translation":[
				0.005942222662270069,
				-0.2471136897802353,
				0.9548688530921936
			]
		},
		{
			"children":[
				5,
				6
			],
			"name":"root.001"
		}
	],
	"materials":[
		{
			"alphaMode":"MASK",
			"doubleSided":true,
			"extensions":{
				"KHR_materials_specular":{
					"specularColorTexture":{
						"index":0
					}
				},
				"KHR_materials_ior":{
					"ior":1000
				}
			},
			"name":"68",
			"pbrMetallicRoughness":{
				"baseColorTexture":{
					"index":1
				},
				"metallicFactor":0,
				"metallicRoughnessTexture":{
					"index":2
				}
			}
		}
	],
	"meshes":[
		{
			"name":"mesh_id53",
			"primitives":[
				{
					"attributes":{
						"POSITION":0,
						"NORMAL":1,
						"TEXCOORD_0":2
					},
					"indices":3,
					"material":0
				}
			]
		}
	],
	"textures":[
		{
			"sampler":0,
			"source":0
		},
		{
			"sampler":0,
			"source":1
		},
		{
			"sampler":0,
			"source":2
		}
	],
	"images":[
		{
			"mimeType":"image/png",
			"name":"Image_1",
			"uri":"Image_1.png"
		},
		{
			"mimeType":"image/png",
			"name":"Image_0",
			"uri":"Image_0.png"
		},
		{
			"mimeType":"image/png",
			"name":"Image_1",
			"uri":"Image_1-1.png"
		}
	],
	"accessors":[
		{
			"bufferView":0,
			"componentType":5126,
			"count":22575,
			"max":[
				6.265165328979492,
				20.279823303222656,
				27.910369873046875
			],
			"min":[
				-6.744210720062256,
				-0.3581876754760742,
				-38.48939895629883
			],
			"type":"VEC3"
		},
		{
			"bufferView":1,
			"componentType":5126,
			"count":22575,
			"type":"VEC3"
		},
		{
			"bufferView":2,
			"componentType":5126,
			"count":22575,
			"type":"VEC2"
		},
		{
			"bufferView":3,
			"componentType":5123,
			"count":74622,
			"type":"SCALAR"
		}
	],
	"bufferViews":[
		{
			"buffer":0,
			"byteLength":270900,
			"byteOffset":0,
			"target":34962
		},
		{
			"buffer":0,
			"byteLength":270900,
			"byteOffset":270900,
			"target":34962
		},
		{
			"buffer":0,
			"byteLength":180600,
			"byteOffset":541800,
			"target":34962
		},
		{
			"buffer":0,
			"byteLength":149244,
			"byteOffset":722400,
			"target":34963
		}
	],
	"samplers":[
		{
			"magFilter":9729,
			"minFilter":9987
		}
	],
	"buffers":[
		{
			"byteLength":871644,
			"uri":"mink.bin"
		}
	]
}
