{
	"asset":{
		"generator":"Khronos glTF Blender I/O v4.4.56",
		"version":"2.0"
	},
	"extensionsUsed":[
		"KHR_materials_specular",
		"KHR_materials_ior"
	],
	"scene":0,
	"scenes":[
		{
			"name":"Scene",
			"nodes":[
				1
			]
		}
	],
	"nodes":[
		{
			"mesh":0,
			"name":"node_id31",
			"scale":[
				0.03224566951394081,
				0.03224566951394081,
				0.03224566951394081
			],
			"translation":[
				0,
				-0.2555482089519501,
				0.5945713520050049
			]
		},
		{
			"children":[
				0
			],
			"name":"root"
		}
	],
	"materials":[
		{
			"alphaMode":"MASK",
			"doubleSided":true,
			"extensions":{
				"KHR_materials_specular":{
					"specularColorTexture":{
						"index":0
					}
				},
				"KHR_materials_ior":{
					"ior":1000
				}
			},
			"name":"47",
			"pbrMetallicRoughness":{
				"baseColorTexture":{
					"index":1
				},
				"metallicFactor":0,
				"metallicRoughnessTexture":{
					"index":2
				}
			}
		}
	],
	"meshes":[
		{
			"name":"mesh_id32",
			"primitives":[
				{
					"attributes":{
						"POSITION":0,
						"NORMAL":1,
						"TEXCOORD_0":2
					},
					"indices":3,
					"material":0
				}
			]
		}
	],
	"textures":[
		{
			"sampler":0,
			"source":0
		},
		{
			"sampler":0,
			"source":1
		},
		{
			"sampler":0,
			"source":2
		}
	],
	"images":[
		{
			"mimeType":"image/png",
			"name":"Image_1",
			"uri":"Image_1.png"
		},
		{
			"mimeType":"image/png",
			"name":"Image_0",
			"uri":"Image_0.png"
		},
		{
			"mimeType":"image/png",
			"name":"Image_1",
			"uri":"Image_1-1.png"
		}
	],
	"accessors":[
		{
			"bufferView":0,
			"componentType":5126,
			"count":17378,
			"max":[
				6.242739200592041,
				15.864097595214844,
				18.43876838684082
			],
			"min":[
				-6.242739200592041,
				-0.014004707336425781,
				-18.43876838684082
			],
			"type":"VEC3"
		},
		{
			"bufferView":1,
			"componentType":5126,
			"count":17378,
			"type":"VEC3"
		},
		{
			"bufferView":2,
			"componentType":5126,
			"count":17378,
			"type":"VEC2"
		},
		{
			"bufferView":3,
			"componentType":5123,
			"count":92796,
			"type":"SCALAR"
		}
	],
	"bufferViews":[
		{
			"buffer":0,
			"byteLength":208536,
			"byteOffset":0,
			"target":34962
		},
		{
			"buffer":0,
			"byteLength":208536,
			"byteOffset":208536,
			"target":34962
		},
		{
			"buffer":0,
			"byteLength":139024,
			"byteOffset":417072,
			"target":34962
		},
		{
			"buffer":0,
			"byteLength":185592,
			"byteOffset":556096,
			"target":34963
		}
	],
	"samplers":[
		{
			"magFilter":9729,
			"minFilter":9987
		}
	],
	"buffers":[
		{
			"byteLength":741688,
			"uri":"Angler_fish.bin"
		}
	]
}
