{
	"asset":{
		"generator":"Khronos glTF Blender I/O v4.4.56",
		"version":"2.0"
	},
	"extensionsUsed":[
		"KHR_materials_specular",
		"KHR_materials_ior"
	],
	"scene":0,
	"scenes":[
		{
			"name":"Scene",
			"nodes":[
				0,
				1,
				2,
				3,
				4,
				7
			]
		}
	],
	"nodes":[
		{
			"name":"root"
		},
		{
			"name":"root.001"
		},
		{
			"name":"root.002"
		},
		{
			"name":"root.003"
		},
		{
			"name":"root.004"
		},
		{
			"mesh":0,
			"name":"node_id8"
		},
		{
			"children":[
				5
			],
			"name":"node_id7",
			"scale":[
				0.02921219915151596,
				0.02921219915151596,
				0.02921219915151596
			],
			"translation":[
				0,
				-0.1631377935409546,
				0.7787188291549683
			]
		},
		{
			"children":[
				6
			],
			"name":"root.005"
		}
	],
	"materials":[
		{
			"alphaMode":"MASK",
			"doubleSided":true,
			"extensions":{
				"KHR_materials_specular":{
					"specularColorTexture":{
						"index":0
					}
				},
				"KHR_materials_ior":{
					"ior":1000
				}
			},
			"name":"32",
			"pbrMetallicRoughness":{
				"baseColorTexture":{
					"index":1
				},
				"metallicFactor":0,
				"metallicRoughnessTexture":{
					"index":2
				}
			}
		}
	],
	"meshes":[
		{
			"name":"mesh_id9",
			"primitives":[
				{
					"attributes":{
						"POSITION":0,
						"NORMAL":1,
						"TEXCOORD_0":2
					},
					"indices":3,
					"material":0
				}
			]
		}
	],
	"textures":[
		{
			"sampler":0,
			"source":0
		},
		{
			"sampler":0,
			"source":1
		},
		{
			"sampler":0,
			"source":2
		}
	],
	"images":[
		{
			"mimeType":"image/png",
			"name":"Image_1",
			"uri":"Image_1.png"
		},
		{
			"mimeType":"image/png",
			"name":"Image_0",
			"uri":"Image_0.png"
		},
		{
			"mimeType":"image/png",
			"name":"Image_1",
			"uri":"Image_1-1.png"
		}
	],
	"accessors":[
		{
			"bufferView":0,
			"componentType":5126,
			"count":21756,
			"max":[
				8.763461112976074,
				11.169170379638672,
				6.3975725173950195
			],
			"min":[
				-8.763461112976074,
				0,
				-6.3975725173950195
			],
			"type":"VEC3"
		},
		{
			"bufferView":1,
			"componentType":5126,
			"count":21756,
			"type":"VEC3"
		},
		{
			"bufferView":2,
			"componentType":5126,
			"count":21756,
			"type":"VEC2"
		},
		{
			"bufferView":3,
			"componentType":5123,
			"count":120462,
			"type":"SCALAR"
		}
	],
	"bufferViews":[
		{
			"buffer":0,
			"byteLength":261072,
			"byteOffset":0,
			"target":34962
		},
		{
			"buffer":0,
			"byteLength":261072,
			"byteOffset":261072,
			"target":34962
		},
		{
			"buffer":0,
			"byteLength":174048,
			"byteOffset":522144,
			"target":34962
		},
		{
			"buffer":0,
			"byteLength":240924,
			"byteOffset":696192,
			"target":34963
		}
	],
	"samplers":[
		{
			"magFilter":9729,
			"minFilter":9987
		}
	],
	"buffers":[
		{
			"byteLength":937116,
			"uri":"Hermit_crab.bin"
		}
	]
}
