{
	"asset":{
		"generator":"Khronos glTF Blender I/O v4.4.56",
		"version":"2.0"
	},
	"extensionsUsed":[
		"KHR_materials_specular",
		"KHR_materials_ior"
	],
	"scene":0,
	"scenes":[
		{
			"name":"Scene",
			"nodes":[
				0,
				1,
				3
			]
		}
	],
	"nodes":[
		{
			"name":"root"
		},
		{
			"name":"root.001"
		},
		{
			"mesh":0,
			"name":"node_id46",
			"scale":[
				0.044144220650196075,
				0.044144220650196075,
				0.044144220650196075
			],
			"translation":[
				0.00011291139526292682,
				-0.25610801577568054,
				0.21100880205631256
			]
		},
		{
			"children":[
				2
			],
			"name":"root.002"
		}
	],
	"materials":[
		{
			"alphaMode":"MASK",
			"doubleSided":true,
			"extensions":{
				"KHR_materials_specular":{
					"specularColorTexture":{
						"index":0
					}
				},
				"KHR_materials_ior":{
					"ior":1000
				}
			},
			"name":"73",
			"pbrMetallicRoughness":{
				"baseColorTexture":{
					"index":1
				},
				"metallicFactor":0,
				"metallicRoughnessTexture":{
					"index":2
				}
			}
		}
	],
	"meshes":[
		{
			"name":"mesh_id47",
			"primitives":[
				{
					"attributes":{
						"POSITION":0,
						"NORMAL":1,
						"TEXCOORD_0":2
					},
					"indices":3,
					"material":0
				}
			]
		}
	],
	"textures":[
		{
			"sampler":0,
			"source":0
		},
		{
			"sampler":0,
			"source":1
		},
		{
			"sampler":0,
			"source":2
		}
	],
	"images":[
		{
			"mimeType":"image/png",
			"name":"Image_1",
			"uri":"Image_1.png"
		},
		{
			"mimeType":"image/png",
			"name":"Image_0",
			"uri":"Image_0.png"
		},
		{
			"mimeType":"image/png",
			"name":"Image_1",
			"uri":"Image_1-1.png"
		}
	],
	"accessors":[
		{
			"bufferView":0,
			"componentType":5126,
			"count":32578,
			"max":[
				4.091012954711914,
				11.600799560546875,
				5.079078674316406
			],
			"min":[
				-4.096128463745117,
				0.0024509429931640625,
				-3.040660858154297
			],
			"type":"VEC3"
		},
		{
			"bufferView":1,
			"componentType":5126,
			"count":32578,
			"type":"VEC3"
		},
		{
			"bufferView":2,
			"componentType":5126,
			"count":32578,
			"type":"VEC2"
		},
		{
			"bufferView":3,
			"componentType":5123,
			"count":182514,
			"type":"SCALAR"
		}
	],
	"bufferViews":[
		{
			"buffer":0,
			"byteLength":390936,
			"byteOffset":0,
			"target":34962
		},
		{
			"buffer":0,
			"byteLength":390936,
			"byteOffset":390936,
			"target":34962
		},
		{
			"buffer":0,
			"byteLength":260624,
			"byteOffset":781872,
			"target":34962
		},
		{
			"buffer":0,
			"byteLength":365028,
			"byteOffset":1042496,
			"target":34963
		}
	],
	"samplers":[
		{
			"magFilter":9729,
			"minFilter":9987
		}
	],
	"buffers":[
		{
			"byteLength":1407524,
			"uri":"Ape.bin"
		}
	]
}
