{
	"asset":{
		"generator":"Khronos glTF Blender I/O v4.4.56",
		"version":"2.0"
	},
	"extensionsUsed":[
		"KHR_materials_specular",
		"KHR_materials_ior"
	],
	"scene":0,
	"scenes":[
		{
			"name":"Scene",
			"nodes":[
				0,
				1,
				2,
				4
			]
		}
	],
	"nodes":[
		{
			"name":"root"
		},
		{
			"name":"root.001"
		},
		{
			"name":"root.002"
		},
		{
			"mesh":0,
			"name":"node_id44",
			"scale":[
				0.0022615459747612476,
				0.0022615459747612476,
				0.0022615459747612476
			],
			"translation":[
				2.5099507183767855e-05,
				-0.21504300832748413,
				0.844137966632843
			]
		},
		{
			"children":[
				3
			],
			"name":"root.003"
		}
	],
	"materials":[
		{
			"alphaMode":"MASK",
			"doubleSided":true,
			"extensions":{
				"KHR_materials_specular":{
					"specularColorTexture":{
						"index":0
					}
				},
				"KHR_materials_ior":{
					"ior":1000
				}
			},
			"name":"114",
			"pbrMetallicRoughness":{
				"baseColorTexture":{
					"index":1
				},
				"metallicFactor":0,
				"metallicRoughnessTexture":{
					"index":2
				}
			}
		}
	],
	"meshes":[
		{
			"name":"mesh_id45",
			"primitives":[
				{
					"attributes":{
						"POSITION":0,
						"NORMAL":1,
						"TEXCOORD_0":2
					},
					"indices":3,
					"material":0
				}
			]
		}
	],
	"textures":[
		{
			"sampler":0,
			"source":0
		},
		{
			"sampler":0,
			"source":1
		},
		{
			"sampler":0,
			"source":2
		}
	],
	"images":[
		{
			"mimeType":"image/png",
			"name":"Image_1",
			"uri":"Image_1.png"
		},
		{
			"mimeType":"image/png",
			"name":"Image_0",
			"uri":"Image_0.png"
		},
		{
			"mimeType":"image/png",
			"name":"Image_1",
			"uri":"Image_1-1.png"
		}
	],
	"accessors":[
		{
			"bufferView":0,
			"componentType":5126,
			"count":22685,
			"max":[
				113.18580627441406,
				190.19589233398438,
				253.848876953125
			],
			"min":[
				-113.20801544189453,
				-0.02223968505859375,
				-253.848876953125
			],
			"type":"VEC3"
		},
		{
			"bufferView":1,
			"componentType":5126,
			"count":22685,
			"type":"VEC3"
		},
		{
			"bufferView":2,
			"componentType":5126,
			"count":22685,
			"type":"VEC2"
		},
		{
			"bufferView":3,
			"componentType":5123,
			"count":123582,
			"type":"SCALAR"
		}
	],
	"bufferViews":[
		{
			"buffer":0,
			"byteLength":272220,
			"byteOffset":0,
			"target":34962
		},
		{
			"buffer":0,
			"byteLength":272220,
			"byteOffset":272220,
			"target":34962
		},
		{
			"buffer":0,
			"byteLength":181480,
			"byteOffset":544440,
			"target":34962
		},
		{
			"buffer":0,
			"byteLength":247164,
			"byteOffset":725920,
			"target":34963
		}
	],
	"samplers":[
		{
			"magFilter":9729,
			"minFilter":9987
		}
	],
	"buffers":[
		{
			"byteLength":973084,
			"uri":"hammerhead_shark.bin"
		}
	]
}
