{
	"asset":{
		"generator":"Khronos glTF Blender I/O v4.4.56",
		"version":"2.0"
	},
	"extensionsUsed":[
		"KHR_materials_specular",
		"KHR_materials_ior"
	],
	"scene":0,
	"scenes":[
		{
			"name":"Scene",
			"nodes":[
				0,
				1,
				2,
				3,
				4,
				5,
				6,
				7,
				8,
				9,
				11
			]
		}
	],
	"nodes":[
		{
			"name":"root"
		},
		{
			"name":"root.001"
		},
		{
			"name":"root.002"
		},
		{
			"name":"root.003"
		},
		{
			"name":"root.004"
		},
		{
			"name":"root.005"
		},
		{
			"name":"root.006"
		},
		{
			"name":"root.007"
		},
		{
			"name":"root.008"
		},
		{
			"name":"root.009"
		},
		{
			"mesh":0,
			"name":"node_id46",
			"scale":[
				0.030908606946468353,
				0.030908606946468353,
				0.030908606946468353
			],
			"translation":[
				-0.11868885159492493,
				-0.2404131293296814,
				0.2560010254383087
			]
		},
		{
			"children":[
				10
			],
			"name":"root.010"
		}
	],
	"materials":[
		{
			"alphaMode":"MASK",
			"doubleSided":true,
			"extensions":{
				"KHR_materials_specular":{
					"specularColorTexture":{
						"index":0
					}
				},
				"KHR_materials_ior":{
					"ior":1000
				}
			},
			"name":"186",
			"pbrMetallicRoughness":{
				"baseColorTexture":{
					"index":1
				},
				"metallicFactor":0,
				"metallicRoughnessTexture":{
					"index":2
				}
			}
		}
	],
	"meshes":[
		{
			"name":"mesh_id47.001",
			"primitives":[
				{
					"attributes":{
						"POSITION":0,
						"NORMAL":1,
						"TEXCOORD_0":2
					},
					"indices":3,
					"material":0
				}
			]
		}
	],
	"textures":[
		{
			"sampler":0,
			"source":0
		},
		{
			"sampler":0,
			"source":1
		},
		{
			"sampler":0,
			"source":2
		}
	],
	"images":[
		{
			"mimeType":"image/png",
			"name":"Image_1",
			"uri":"Image_1.png"
		},
		{
			"mimeType":"image/png",
			"name":"Image_0",
			"uri":"Image_0.png"
		},
		{
			"mimeType":"image/png",
			"name":"Image_1",
			"uri":"Image_1-1.png"
		}
	],
	"accessors":[
		{
			"bufferView":0,
			"componentType":5126,
			"count":11323,
			"max":[
				12.122476577758789,
				15.645061492919922,
				4.376626968383789
			],
			"min":[
				-4.442490100860596,
				-0.08866024017333984,
				-4.3766279220581055
			],
			"type":"VEC3"
		},
		{
			"bufferView":1,
			"componentType":5126,
			"count":11323,
			"type":"VEC3"
		},
		{
			"bufferView":2,
			"componentType":5126,
			"count":11323,
			"type":"VEC2"
		},
		{
			"bufferView":3,
			"componentType":5123,
			"count":62634,
			"type":"SCALAR"
		}
	],
	"bufferViews":[
		{
			"buffer":0,
			"byteLength":135876,
			"byteOffset":0,
			"target":34962
		},
		{
			"buffer":0,
			"byteLength":135876,
			"byteOffset":135876,
			"target":34962
		},
		{
			"buffer":0,
			"byteLength":90584,
			"byteOffset":271752,
			"target":34962
		},
		{
			"buffer":0,
			"byteLength":125268,
			"byteOffset":362336,
			"target":34963
		}
	],
	"samplers":[
		{
			"magFilter":9729,
			"minFilter":9987
		}
	],
	"buffers":[
		{
			"byteLength":487604,
			"uri":"jellyfish.bin"
		}
	]
}
