{
	"asset":{
		"generator":"Khronos glTF Blender I/O v4.4.56",
		"version":"2.0"
	},
	"extensionsUsed":[
		"KHR_materials_specular",
		"KHR_materials_ior"
	],
	"scene":0,
	"scenes":[
		{
			"name":"Scene",
			"nodes":[
				0,
				2
			]
		}
	],
	"nodes":[
		{
			"name":"root"
		},
		{
			"mesh":0,
			"name":"node_id109",
			"scale":[
				0.7405310273170471,
				0.7405310273170471,
				0.7405310273170471
			],
			"translation":[
				-0.1017511859536171,
				-0.16896890103816986,
				0.7159186601638794
			]
		},
		{
			"children":[
				1
			],
			"name":"root.001"
		}
	],
	"materials":[
		{
			"alphaMode":"MASK",
			"doubleSided":true,
			"extensions":{
				"KHR_materials_specular":{
					"specularColorTexture":{
						"index":0
					}
				},
				"KHR_materials_ior":{
					"ior":1000
				}
			},
			"name":"267",
			"pbrMetallicRoughness":{
				"baseColorTexture":{
					"index":1
				},
				"metallicFactor":0,
				"metallicRoughnessTexture":{
					"index":2
				}
			}
		}
	],
	"meshes":[
		{
			"name":"mesh_id110",
			"primitives":[
				{
					"attributes":{
						"POSITION":0,
						"NORMAL":1,
						"TEXCOORD_0":2
					},
					"indices":3,
					"material":0
				}
			]
		}
	],
	"textures":[
		{
			"sampler":0,
			"source":0
		},
		{
			"sampler":0,
			"source":1
		},
		{
			"sampler":0,
			"source":2
		}
	],
	"images":[
		{
			"mimeType":"image/png",
			"name":"Image_1",
			"uri":"Image_1.png"
		},
		{
			"mimeType":"image/png",
			"name":"Image_0",
			"uri":"Image_0.png"
		},
		{
			"mimeType":"image/png",
			"name":"Image_1",
			"uri":"Image_1-1.png"
		}
	],
	"accessors":[
		{
			"bufferView":0,
			"componentType":5126,
			"count":16338,
			"max":[
				0.48310089111328125,
				0.457122802734375,
				0.6928939819335938
			],
			"min":[
				-0.20829486846923828,
				-0.0007769986987113953,
				-0.9667625427246094
			],
			"type":"VEC3"
		},
		{
			"bufferView":1,
			"componentType":5126,
			"count":16338,
			"type":"VEC3"
		},
		{
			"bufferView":2,
			"componentType":5126,
			"count":16338,
			"type":"VEC2"
		},
		{
			"bufferView":3,
			"componentType":5123,
			"count":88956,
			"type":"SCALAR"
		}
	],
	"bufferViews":[
		{
			"buffer":0,
			"byteLength":196056,
			"byteOffset":0,
			"target":34962
		},
		{
			"buffer":0,
			"byteLength":196056,
			"byteOffset":196056,
			"target":34962
		},
		{
			"buffer":0,
			"byteLength":130704,
			"byteOffset":392112,
			"target":34962
		},
		{
			"buffer":0,
			"byteLength":177912,
			"byteOffset":522816,
			"target":34963
		}
	],
	"samplers":[
		{
			"magFilter":9729,
			"minFilter":9987
		}
	],
	"buffers":[
		{
			"byteLength":700728,
			"uri":"Mouse.bin"
		}
	]
}
