{
	"asset":{
		"generator":"Khronos glTF Blender I/O v4.4.56",
		"version":"2.0"
	},
	"extensionsUsed":[
		"KHR_materials_specular",
		"KHR_materials_ior"
	],
	"scene":0,
	"scenes":[
		{
			"name":"Scene",
			"nodes":[
				1
			]
		}
	],
	"nodes":[
		{
			"mesh":0,
			"name":"node_id30",
			"scale":[
				0.02199540100991726,
				0.02199540100991726,
				0.02199540100991726
			],
			"translation":[
				0,
				-0.2547048032283783,
				0.4002663195133209
			]
		},
		{
			"children":[
				0
			],
			"name":"root"
		}
	],
	"materials":[
		{
			"alphaMode":"MASK",
			"doubleSided":true,
			"extensions":{
				"KHR_materials_specular":{
					"specularColorTexture":{
						"index":0
					}
				},
				"KHR_materials_ior":{
					"ior":1000
				}
			},
			"name":"49",
			"pbrMetallicRoughness":{
				"baseColorTexture":{
					"index":1
				},
				"metallicFactor":0,
				"metallicRoughnessTexture":{
					"index":2
				}
			}
		}
	],
	"meshes":[
		{
			"name":"mesh_id31",
			"primitives":[
				{
					"attributes":{
						"POSITION":0,
						"NORMAL":1,
						"TEXCOORD_0":2
					},
					"indices":3,
					"material":0
				}
			]
		}
	],
	"textures":[
		{
			"sampler":0,
			"source":0
		},
		{
			"sampler":0,
			"source":1
		},
		{
			"sampler":0,
			"source":2
		}
	],
	"images":[
		{
			"mimeType":"image/png",
			"name":"Image_1",
			"uri":"Image_1.png"
		},
		{
			"mimeType":"image/png",
			"name":"Image_0",
			"uri":"Image_0.png"
		},
		{
			"mimeType":"image/png",
			"name":"Image_1",
			"uri":"Image_1-1.png"
		}
	],
	"accessors":[
		{
			"bufferView":0,
			"componentType":5126,
			"count":23398,
			"max":[
				6.134499549865723,
				23.218721389770508,
				18.197683334350586
			],
			"min":[
				-6.1344990730285645,
				-0.05887651443481445,
				-18.197683334350586
			],
			"type":"VEC3"
		},
		{
			"bufferView":1,
			"componentType":5126,
			"count":23398,
			"type":"VEC3"
		},
		{
			"bufferView":2,
			"componentType":5126,
			"count":23398,
			"type":"VEC2"
		},
		{
			"bufferView":3,
			"componentType":5123,
			"count":128130,
			"type":"SCALAR"
		}
	],
	"bufferViews":[
		{
			"buffer":0,
			"byteLength":280776,
			"byteOffset":0,
			"target":34962
		},
		{
			"buffer":0,
			"byteLength":280776,
			"byteOffset":280776,
			"target":34962
		},
		{
			"buffer":0,
			"byteLength":187184,
			"byteOffset":561552,
			"target":34962
		},
		{
			"buffer":0,
			"byteLength":256260,
			"byteOffset":748736,
			"target":34963
		}
	],
	"samplers":[
		{
			"magFilter":9729,
			"minFilter":9987
		}
	],
	"buffers":[
		{
			"byteLength":1004996,
			"uri":"Lion.bin"
		}
	]
}
