{
	"asset":{
		"generator":"Khronos glTF Blender I/O v4.4.56",
		"version":"2.0"
	},
	"extensionsUsed":[
		"KHR_materials_specular",
		"KHR_materials_ior"
	],
	"scene":0,
	"scenes":[
		{
			"name":"Scene",
			"nodes":[
				0,
				1,
				2,
				3,
				4,
				5,
				6,
				7,
				8,
				9,
				10,
				12
			]
		}
	],
	"nodes":[
		{
			"name":"root"
		},
		{
			"name":"root.001"
		},
		{
			"name":"root.002"
		},
		{
			"name":"root.003"
		},
		{
			"name":"root.004"
		},
		{
			"name":"root.005"
		},
		{
			"name":"root.006"
		},
		{
			"name":"root.007"
		},
		{
			"name":"root.008"
		},
		{
			"name":"root.009"
		},
		{
			"name":"root.010"
		},
		{
			"mesh":0,
			"name":"node_id52",
			"scale":[
				0.04377811402082443,
				0.04377811402082443,
				0.04377811402082443
			],
			"translation":[
				0,
				-0.10927848517894745,
				0.2558820843696594
			]
		},
		{
			"children":[
				11
			],
			"name":"root.011"
		}
	],
	"materials":[
		{
			"alphaMode":"MASK",
			"doubleSided":true,
			"extensions":{
				"KHR_materials_specular":{
					"specularColorTexture":{
						"index":0
					}
				},
				"KHR_materials_ior":{
					"ior":1000
				}
			},
			"name":"194",
			"pbrMetallicRoughness":{
				"baseColorTexture":{
					"index":1
				},
				"metallicFactor":0,
				"metallicRoughnessTexture":{
					"index":2
				}
			}
		}
	],
	"meshes":[
		{
			"name":"mesh_id53",
			"primitives":[
				{
					"attributes":{
						"POSITION":0,
						"NORMAL":1,
						"TEXCOORD_0":2
					},
					"indices":3,
					"material":0
				}
			]
		}
	],
	"textures":[
		{
			"sampler":0,
			"source":0
		},
		{
			"sampler":0,
			"source":1
		},
		{
			"sampler":0,
			"source":2
		}
	],
	"images":[
		{
			"mimeType":"image/png",
			"name":"Image_1",
			"uri":"Image_1.png"
		},
		{
			"mimeType":"image/png",
			"name":"Image_0",
			"uri":"Image_0.png"
		},
		{
			"mimeType":"image/png",
			"name":"Image_1",
			"uri":"Image_1-1.png"
		}
	],
	"accessors":[
		{
			"bufferView":0,
			"componentType":5126,
			"count":22523,
			"max":[
				5.8476715087890625,
				4.992389678955078,
				5.46795654296875
			],
			"min":[
				-5.8476715087890625,
				-1.8775460830511292e-07,
				-5.4625244140625
			],
			"type":"VEC3"
		},
		{
			"bufferView":1,
			"componentType":5126,
			"count":22523,
			"type":"VEC3"
		},
		{
			"bufferView":2,
			"componentType":5126,
			"count":22523,
			"type":"VEC2"
		},
		{
			"bufferView":3,
			"componentType":5123,
			"count":130704,
			"type":"SCALAR"
		}
	],
	"bufferViews":[
		{
			"buffer":0,
			"byteLength":270276,
			"byteOffset":0,
			"target":34962
		},
		{
			"buffer":0,
			"byteLength":270276,
			"byteOffset":270276,
			"target":34962
		},
		{
			"buffer":0,
			"byteLength":180184,
			"byteOffset":540552,
			"target":34962
		},
		{
			"buffer":0,
			"byteLength":261408,
			"byteOffset":720736,
			"target":34963
		}
	],
	"samplers":[
		{
			"magFilter":9729,
			"minFilter":9987
		}
	],
	"buffers":[
		{
			"byteLength":982144,
			"uri":"sea_turtle.bin"
		}
	]
}
