{
	"asset":{
		"generator":"Khronos glTF Blender I/O v4.4.56",
		"version":"2.0"
	},
	"extensionsUsed":[
		"KHR_materials_specular",
		"KHR_materials_ior"
	],
	"scene":0,
	"scenes":[
		{
			"name":"Scene",
			"nodes":[
				1
			]
		}
	],
	"nodes":[
		{
			"mesh":0,
			"name":"node_id110",
			"scale":[
				0.04169357940554619,
				0.04169357940554619,
				0.04169357940554619
			],
			"translation":[
				-0.008945648558437824,
				-0.2544897496700287,
				0.754184365272522
			]
		},
		{
			"children":[
				0
			],
			"name":"root"
		}
	],
	"materials":[
		{
			"alphaMode":"MASK",
			"doubleSided":true,
			"extensions":{
				"KHR_materials_specular":{
					"specularColorTexture":{
						"index":0
					}
				},
				"KHR_materials_ior":{
					"ior":1000
				}
			},
			"name":"212",
			"pbrMetallicRoughness":{
				"baseColorTexture":{
					"index":1
				},
				"metallicFactor":0,
				"metallicRoughnessTexture":{
					"index":2
				}
			}
		}
	],
	"meshes":[
		{
			"name":"mesh_id111",
			"primitives":[
				{
					"attributes":{
						"POSITION":0,
						"NORMAL":1,
						"TEXCOORD_0":2
					},
					"indices":3,
					"material":0
				}
			]
		}
	],
	"textures":[
		{
			"sampler":0,
			"source":0
		},
		{
			"sampler":0,
			"source":1
		},
		{
			"sampler":0,
			"source":2
		}
	],
	"images":[
		{
			"mimeType":"image/png",
			"name":"Image_1",
			"uri":"Image_1.png"
		},
		{
			"mimeType":"image/png",
			"name":"Image_0",
			"uri":"Image_0.png"
		},
		{
			"mimeType":"image/png",
			"name":"Image_1",
			"uri":"Image_1-1.png"
		}
	],
	"accessors":[
		{
			"bufferView":0,
			"componentType":5126,
			"count":14950,
			"max":[
				4.077369689941406,
				12.24384593963623,
				12.851436614990234
			],
			"min":[
				-3.6482558250427246,
				-0.03622201085090637,
				-13.413228988647461
			],
			"type":"VEC3"
		},
		{
			"bufferView":1,
			"componentType":5126,
			"count":14950,
			"type":"VEC3"
		},
		{
			"bufferView":2,
			"componentType":5126,
			"count":14950,
			"type":"VEC2"
		},
		{
			"bufferView":3,
			"componentType":5123,
			"count":81417,
			"type":"SCALAR"
		}
	],
	"bufferViews":[
		{
			"buffer":0,
			"byteLength":179400,
			"byteOffset":0,
			"target":34962
		},
		{
			"buffer":0,
			"byteLength":179400,
			"byteOffset":179400,
			"target":34962
		},
		{
			"buffer":0,
			"byteLength":119600,
			"byteOffset":358800,
			"target":34962
		},
		{
			"buffer":0,
			"byteLength":162834,
			"byteOffset":478400,
			"target":34963
		}
	],
	"samplers":[
		{
			"magFilter":9729,
			"minFilter":9987
		}
	],
	"buffers":[
		{
			"byteLength":641236,
			"uri":"Wolverine.bin"
		}
	]
}
