{
	"asset":{
		"generator":"Khronos glTF Blender I/O v4.4.56",
		"version":"2.0"
	},
	"extensionsUsed":[
		"KHR_materials_specular",
		"KHR_materials_ior"
	],
	"scene":0,
	"scenes":[
		{
			"name":"Scene",
			"nodes":[
				0,
				1,
				2,
				3,
				4,
				5,
				6,
				7,
				8,
				9,
				10,
				11,
				13
			]
		}
	],
	"nodes":[
		{
			"name":"root"
		},
		{
			"name":"root.001"
		},
		{
			"name":"root.002"
		},
		{
			"name":"root.003"
		},
		{
			"name":"root.004"
		},
		{
			"name":"root.005"
		},
		{
			"name":"root.006"
		},
		{
			"name":"root.007"
		},
		{
			"name":"root.008"
		},
		{
			"name":"root.009"
		},
		{
			"name":"root.010"
		},
		{
			"name":"root.011"
		},
		{
			"mesh":0,
			"name":"node_id62",
			"scale":[
				0.08589783310890198,
				0.08589783310890198,
				0.08589783310890198
			],
			"translation":[
				0.11023476719856262,
				-0.2498273104429245,
				0.6307659149169922
			]
		},
		{
			"children":[
				12
			],
			"name":"root.012"
		}
	],
	"materials":[
		{
			"alphaMode":"MASK",
			"doubleSided":true,
			"extensions":{
				"KHR_materials_specular":{
					"specularColorTexture":{
						"index":0
					}
				},
				"KHR_materials_ior":{
					"ior":1000
				}
			},
			"name":"208",
			"pbrMetallicRoughness":{
				"baseColorTexture":{
					"index":1
				},
				"metallicFactor":0,
				"metallicRoughnessTexture":{
					"index":2
				}
			}
		}
	],
	"meshes":[
		{
			"name":"mesh_id63",
			"primitives":[
				{
					"attributes":{
						"POSITION":0,
						"NORMAL":1,
						"TEXCOORD_0":2
					},
					"indices":3,
					"material":0
				}
			]
		}
	],
	"textures":[
		{
			"sampler":0,
			"source":0
		},
		{
			"sampler":0,
			"source":1
		},
		{
			"sampler":0,
			"source":2
		}
	],
	"images":[
		{
			"mimeType":"image/png",
			"name":"Image_1",
			"uri":"Image_1.png"
		},
		{
			"mimeType":"image/png",
			"name":"Image_0",
			"uri":"Image_0.png"
		},
		{
			"mimeType":"image/png",
			"name":"Image_1",
			"uri":"Image_1-1.png"
		}
	],
	"accessors":[
		{
			"bufferView":0,
			"componentType":5126,
			"count":20552,
			"max":[
				1.0219696760177612,
				5.888710975646973,
				6.721796035766602
			],
			"min":[
				-3.588618040084839,
				-0.07185830175876617,
				-7.343199729919434
			],
			"type":"VEC3"
		},
		{
			"bufferView":1,
			"componentType":5126,
			"count":20552,
			"type":"VEC3"
		},
		{
			"bufferView":2,
			"componentType":5126,
			"count":20552,
			"type":"VEC2"
		},
		{
			"bufferView":3,
			"componentType":5123,
			"count":115692,
			"type":"SCALAR"
		}
	],
	"bufferViews":[
		{
			"buffer":0,
			"byteLength":246624,
			"byteOffset":0,
			"target":34962
		},
		{
			"buffer":0,
			"byteLength":246624,
			"byteOffset":246624,
			"target":34962
		},
		{
			"buffer":0,
			"byteLength":164416,
			"byteOffset":493248,
			"target":34962
		},
		{
			"buffer":0,
			"byteLength":231384,
			"byteOffset":657664,
			"target":34963
		}
	],
	"samplers":[
		{
			"magFilter":9729,
			"minFilter":9987
		}
	],
	"buffers":[
		{
			"byteLength":889048,
			"uri":"Toucan.bin"
		}
	]
}
