{
	"asset":{
		"generator":"Khronos glTF Blender I/O v4.4.56",
		"version":"2.0"
	},
	"extensionsUsed":[
		"KHR_materials_specular",
		"KHR_materials_ior"
	],
	"scene":0,
	"scenes":[
		{
			"name":"Scene",
			"nodes":[
				0,
				6,
				13
			]
		}
	],
	"nodes":[
		{
			"name":"root"
		},
		{
			"name":"node_id47"
		},
		{
			"children":[
				1
			],
			"name":"node_id46",
			"scale":[
				0.009999999776482582,
				0.009999999776482582,
				0.009999999776482582
			]
		},
		{
			"children":[
				2
			],
			"name":"node_id45"
		},
		{
			"children":[
				3
			],
			"name":"node_id44"
		},
		{
			"children":[
				4
			],
			"name":"node_id43",
			"scale":[
				0.0010000000474974513,
				0.0010000000474974513,
				0.0010000000474974513
			]
		},
		{
			"children":[
				5
			],
			"name":"root.001"
		},
		{
			"name":"node_id47.001"
		},
		{
			"children":[
				7
			],
			"name":"node_id46.001",
			"scale":[
				0.009999999776482582,
				0.009999999776482582,
				0.009999999776482582
			]
		},
		{
			"children":[
				8
			],
			"name":"node_id45.001"
		},
		{
			"children":[
				9
			],
			"name":"node_id44.001"
		},
		{
			"children":[
				10
			],
			"name":"node_id43.001",
			"scale":[
				0.0010000000474974513,
				0.0010000000474974513,
				0.0010000000474974513
			]
		},
		{
			"mesh":0,
			"name":"node_id65",
			"scale":[
				0.08821873366832733,
				0.08821873366832733,
				0.08821873366832733
			],
			"translation":[
				-3.1220839446177706e-05,
				-0.2559916377067566,
				0.6964958906173706
			]
		},
		{
			"children":[
				11,
				12
			],
			"name":"root.002"
		}
	],
	"materials":[
		{
			"alphaMode":"MASK",
			"doubleSided":true,
			"extensions":{
				"KHR_materials_specular":{
					"specularColorTexture":{
						"index":0
					}
				},
				"KHR_materials_ior":{
					"ior":1000
				}
			},
			"name":"86",
			"pbrMetallicRoughness":{
				"baseColorTexture":{
					"index":1
				},
				"metallicFactor":0,
				"metallicRoughnessTexture":{
					"index":2
				}
			}
		}
	],
	"meshes":[
		{
			"name":"mesh_id66",
			"primitives":[
				{
					"attributes":{
						"POSITION":0,
						"NORMAL":1,
						"TEXCOORD_0":2
					},
					"indices":3,
					"material":0
				}
			]
		}
	],
	"textures":[
		{
			"sampler":0,
			"source":0
		},
		{
			"sampler":0,
			"source":1
		},
		{
			"sampler":0,
			"source":2
		}
	],
	"images":[
		{
			"mimeType":"image/png",
			"name":"Image_1",
			"uri":"Image_1.png"
		},
		{
			"mimeType":"image/png",
			"name":"Image_0",
			"uri":"Image_0.png"
		},
		{
			"mimeType":"image/png",
			"name":"Image_1",
			"uri":"Image_1-1.png"
		}
	],
	"accessors":[
		{
			"bufferView":0,
			"componentType":5126,
			"count":27390,
			"max":[
				2.3373613357543945,
				5.803663730621338,
				8.607444763183594
			],
			"min":[
				-2.336653709411621,
				-9.246000263374299e-05,
				-7.8950910568237305
			],
			"type":"VEC3"
		},
		{
			"bufferView":1,
			"componentType":5126,
			"count":27390,
			"type":"VEC3"
		},
		{
			"bufferView":2,
			"componentType":5126,
			"count":27390,
			"type":"VEC2"
		},
		{
			"bufferView":3,
			"componentType":5123,
			"count":88074,
			"type":"SCALAR"
		}
	],
	"bufferViews":[
		{
			"buffer":0,
			"byteLength":328680,
			"byteOffset":0,
			"target":34962
		},
		{
			"buffer":0,
			"byteLength":328680,
			"byteOffset":328680,
			"target":34962
		},
		{
			"buffer":0,
			"byteLength":219120,
			"byteOffset":657360,
			"target":34962
		},
		{
			"buffer":0,
			"byteLength":176148,
			"byteOffset":876480,
			"target":34963
		}
	],
	"samplers":[
		{
			"magFilter":9729,
			"minFilter":9987
		}
	],
	"buffers":[
		{
			"byteLength":1052628,
			"uri":"badger.bin"
		}
	]
}
