{
	"asset":{
		"generator":"Khronos glTF Blender I/O v4.4.56",
		"version":"2.0"
	},
	"extensionsUsed":[
		"KHR_materials_specular",
		"KHR_materials_ior"
	],
	"scene":0,
	"scenes":[
		{
			"name":"Scene",
			"nodes":[
				0,
				1,
				3
			]
		}
	],
	"nodes":[
		{
			"name":"root"
		},
		{
			"name":"root.001"
		},
		{
			"mesh":0,
			"name":"node_id60",
			"scale":[
				0.005542675964534283,
				0.005542675964534283,
				0.005542675964534283
			],
			"translation":[
				0,
				-0.25610268115997314,
				0.32584041357040405
			]
		},
		{
			"children":[
				2
			],
			"name":"root.002"
		}
	],
	"materials":[
		{
			"alphaMode":"MASK",
			"doubleSided":true,
			"extensions":{
				"KHR_materials_specular":{
					"specularColorTexture":{
						"index":0
					}
				},
				"KHR_materials_ior":{
					"ior":1000
				}
			},
			"name":"94",
			"pbrMetallicRoughness":{
				"baseColorTexture":{
					"index":1
				},
				"metallicFactor":0,
				"metallicRoughnessTexture":{
					"index":2
				}
			}
		}
	],
	"meshes":[
		{
			"name":"mesh_id61",
			"primitives":[
				{
					"attributes":{
						"POSITION":0,
						"NORMAL":1,
						"TEXCOORD_0":2
					},
					"indices":3,
					"material":0
				}
			]
		}
	],
	"textures":[
		{
			"sampler":0,
			"source":0
		},
		{
			"sampler":0,
			"source":1
		},
		{
			"sampler":0,
			"source":2
		}
	],
	"images":[
		{
			"mimeType":"image/png",
			"name":"Image_1",
			"uri":"Image_1.png"
		},
		{
			"mimeType":"image/png",
			"name":"Image_0",
			"uri":"Image_0.png"
		},
		{
			"mimeType":"image/png",
			"name":"Image_1",
			"uri":"Image_1-1.png"
		}
	],
	"accessors":[
		{
			"bufferView":0,
			"componentType":5126,
			"count":21106,
			"max":[
				22.936952590942383,
				92.39271545410156,
				48.424129486083984
			],
			"min":[
				-22.93695068359375,
				0.01856078952550888,
				-58.78738021850586
			],
			"type":"VEC3"
		},
		{
			"bufferView":1,
			"componentType":5126,
			"count":21106,
			"type":"VEC3"
		},
		{
			"bufferView":2,
			"componentType":5126,
			"count":21106,
			"type":"VEC2"
		},
		{
			"bufferView":3,
			"componentType":5123,
			"count":66843,
			"type":"SCALAR"
		}
	],
	"bufferViews":[
		{
			"buffer":0,
			"byteLength":253272,
			"byteOffset":0,
			"target":34962
		},
		{
			"buffer":0,
			"byteLength":253272,
			"byteOffset":253272,
			"target":34962
		},
		{
			"buffer":0,
			"byteLength":168848,
			"byteOffset":506544,
			"target":34962
		},
		{
			"buffer":0,
			"byteLength":133686,
			"byteOffset":675392,
			"target":34963
		}
	],
	"samplers":[
		{
			"magFilter":9729,
			"minFilter":9987
		}
	],
	"buffers":[
		{
			"byteLength":809080,
			"uri":"Prairie_dog.bin"
		}
	]
}
