{
	"asset":{
		"generator":"Khronos glTF Blender I/O v4.4.56",
		"version":"2.0"
	},
	"extensionsUsed":[
		"KHR_materials_specular",
		"KHR_materials_ior"
	],
	"scene":0,
	"scenes":[
		{
			"name":"Scene",
			"nodes":[
				0,
				1,
				2,
				3,
				5
			]
		}
	],
	"nodes":[
		{
			"name":"root"
		},
		{
			"name":"root.001"
		},
		{
			"name":"root.002"
		},
		{
			"name":"root.003"
		},
		{
			"mesh":0,
			"name":"node_id31",
			"scale":[
				0.002945480402559042,
				0.002945480402559042,
				0.002945480402559042
			],
			"translation":[
				-2.9845932658645324e-06,
				-0.2441331297159195,
				0.5349318385124207
			]
		},
		{
			"children":[
				4
			],
			"name":"root.004"
		}
	],
	"materials":[
		{
			"alphaMode":"MASK",
			"doubleSided":true,
			"extensions":{
				"KHR_materials_specular":{
					"specularColorTexture":{
						"index":0
					}
				},
				"KHR_materials_ior":{
					"ior":1000
				}
			},
			"name":"47",
			"pbrMetallicRoughness":{
				"baseColorTexture":{
					"index":1
				},
				"metallicFactor":0,
				"metallicRoughnessTexture":{
					"index":2
				}
			}
		}
	],
	"meshes":[
		{
			"name":"mesh_id32",
			"primitives":[
				{
					"attributes":{
						"POSITION":0,
						"NORMAL":1,
						"TEXCOORD_0":2
					},
					"indices":3,
					"material":0
				}
			]
		}
	],
	"textures":[
		{
			"sampler":0,
			"source":0
		},
		{
			"sampler":0,
			"source":1
		},
		{
			"sampler":0,
			"source":2
		}
	],
	"images":[
		{
			"mimeType":"image/png",
			"name":"Image_1",
			"uri":"Image_1.png"
		},
		{
			"mimeType":"image/png",
			"name":"Image_0",
			"uri":"Image_0.png"
		},
		{
			"mimeType":"image/png",
			"name":"Image_1",
			"uri":"Image_1-1.png"
		}
	],
	"accessors":[
		{
			"bufferView":0,
			"componentType":5126,
			"count":10151,
			"max":[
				33.33026123046875,
				169.796875,
				82.70709991455078
			],
			"min":[
				-33.328243255615234,
				-4.028778076171875,
				-181.61073303222656
			],
			"type":"VEC3"
		},
		{
			"bufferView":1,
			"componentType":5126,
			"count":10151,
			"type":"VEC3"
		},
		{
			"bufferView":2,
			"componentType":5126,
			"count":10151,
			"type":"VEC2"
		},
		{
			"bufferView":3,
			"componentType":5123,
			"count":52476,
			"type":"SCALAR"
		}
	],
	"bufferViews":[
		{
			"buffer":0,
			"byteLength":121812,
			"byteOffset":0,
			"target":34962
		},
		{
			"buffer":0,
			"byteLength":121812,
			"byteOffset":121812,
			"target":34962
		},
		{
			"buffer":0,
			"byteLength":81208,
			"byteOffset":243624,
			"target":34962
		},
		{
			"buffer":0,
			"byteLength":104952,
			"byteOffset":324832,
			"target":34963
		}
	],
	"samplers":[
		{
			"magFilter":9729,
			"minFilter":9987
		}
	],
	"buffers":[
		{
			"byteLength":429784,
			"uri":"kangaroo.bin"
		}
	]
}
