{
	"asset":{
		"generator":"Khronos glTF Blender I/O v4.4.56",
		"version":"2.0"
	},
	"extensionsUsed":[
		"KHR_materials_specular",
		"KHR_materials_ior"
	],
	"scene":0,
	"scenes":[
		{
			"name":"Scene",
			"nodes":[
				3
			]
		}
	],
	"nodes":[
		{
			"mesh":0,
			"name":"node_id59",
			"rotation":[
				0,
				-0.7071066498756409,
				0,
				0.70710688829422
			],
			"scale":[
				1.356873869895935,
				1.3568739891052246,
				1.356873869895935
			],
			"translation":[
				-23.434612274169922,
				-215.42132568359375,
				851.4697875976562
			]
		},
		{
			"mesh":1,
			"name":"node_id61",
			"rotation":[
				0,
				-0.7071066498756409,
				0,
				0.70710688829422
			],
			"scale":[
				1.356873869895935,
				1.3568739891052246,
				1.356873869895935
			],
			"translation":[
				-23.434612274169922,
				-215.42132568359375,
				851.4697875976562
			]
		},
		{
			"children":[
				0,
				1
			],
			"name":"node_id63",
			"scale":[
				0.0010000000474974513,
				0.0010000000474974513,
				0.0010000000474974513
			]
		},
		{
			"children":[
				2
			],
			"name":"root"
		}
	],
	"materials":[
		{
			"alphaMode":"MASK",
			"doubleSided":true,
			"extensions":{
				"KHR_materials_specular":{
					"specularColorTexture":{
						"index":0
					}
				},
				"KHR_materials_ior":{
					"ior":1000
				}
			},
			"name":"125",
			"pbrMetallicRoughness":{
				"baseColorTexture":{
					"index":1
				},
				"metallicFactor":0,
				"metallicRoughnessTexture":{
					"index":2
				}
			}
		},
		{
			"alphaMode":"MASK",
			"doubleSided":true,
			"extensions":{
				"KHR_materials_specular":{
					"specularColorTexture":{
						"index":3
					}
				},
				"KHR_materials_ior":{
					"ior":1000
				}
			},
			"name":"126",
			"pbrMetallicRoughness":{
				"baseColorTexture":{
					"index":4
				},
				"metallicFactor":0,
				"metallicRoughnessTexture":{
					"index":5
				}
			}
		}
	],
	"meshes":[
		{
			"name":"mesh_id60",
			"primitives":[
				{
					"attributes":{
						"POSITION":0,
						"NORMAL":1,
						"TEXCOORD_0":2
					},
					"indices":3,
					"material":0
				}
			]
		},
		{
			"name":"mesh_id62",
			"primitives":[
				{
					"attributes":{
						"POSITION":4,
						"NORMAL":5,
						"TEXCOORD_0":6
					},
					"indices":7,
					"material":1
				}
			]
		}
	],
	"textures":[
		{
			"sampler":0,
			"source":0
		},
		{
			"sampler":0,
			"source":1
		},
		{
			"sampler":0,
			"source":2
		},
		{
			"sampler":0,
			"source":3
		},
		{
			"sampler":0,
			"source":4
		},
		{
			"sampler":0,
			"source":5
		}
	],
	"images":[
		{
			"mimeType":"image/png",
			"name":"Image_1",
			"uri":"Image_1.png"
		},
		{
			"mimeType":"image/png",
			"name":"Image_0",
			"uri":"Image_0.png"
		},
		{
			"mimeType":"image/png",
			"name":"Image_1",
			"uri":"Image_1-1.png"
		},
		{
			"mimeType":"image/png",
			"name":"Image_5",
			"uri":"Image_5.png"
		},
		{
			"mimeType":"image/png",
			"name":"Image_4",
			"uri":"Image_4.png"
		},
		{
			"mimeType":"image/png",
			"name":"Image_5",
			"uri":"Image_5-1.png"
		}
	],
	"accessors":[
		{
			"bufferView":0,
			"componentType":5126,
			"count":12932,
			"max":[
				123.6525650024414,
				318.21881103515625,
				171.39797973632812
			],
			"min":[
				-48.46387481689453,
				-0.6926506161689758,
				-168.2063446044922
			],
			"type":"VEC3"
		},
		{
			"bufferView":1,
			"componentType":5126,
			"count":12932,
			"type":"VEC3"
		},
		{
			"bufferView":2,
			"componentType":5126,
			"count":12932,
			"type":"VEC2"
		},
		{
			"bufferView":3,
			"componentType":5123,
			"count":66900,
			"type":"SCALAR"
		},
		{
			"bufferView":4,
			"componentType":5126,
			"count":18320,
			"max":[
				89.0943832397461,
				314.12139892578125,
				166.09739685058594
			],
			"min":[
				-30.73999786376953,
				3.1215267181396484,
				-205.94000244140625
			],
			"type":"VEC3"
		},
		{
			"bufferView":5,
			"componentType":5126,
			"count":18320,
			"type":"VEC3"
		},
		{
			"bufferView":6,
			"componentType":5126,
			"count":18320,
			"type":"VEC2"
		},
		{
			"bufferView":7,
			"componentType":5123,
			"count":39177,
			"type":"SCALAR"
		}
	],
	"bufferViews":[
		{
			"buffer":0,
			"byteLength":155184,
			"byteOffset":0,
			"target":34962
		},
		{
			"buffer":0,
			"byteLength":155184,
			"byteOffset":155184,
			"target":34962
		},
		{
			"buffer":0,
			"byteLength":103456,
			"byteOffset":310368,
			"target":34962
		},
		{
			"buffer":0,
			"byteLength":133800,
			"byteOffset":413824,
			"target":34963
		},
		{
			"buffer":0,
			"byteLength":219840,
			"byteOffset":547624,
			"target":34962
		},
		{
			"buffer":0,
			"byteLength":219840,
			"byteOffset":767464,
			"target":34962
		},
		{
			"buffer":0,
			"byteLength":146560,
			"byteOffset":987304,
			"target":34962
		},
		{
			"buffer":0,
			"byteLength":78354,
			"byteOffset":1133864,
			"target":34963
		}
	],
	"samplers":[
		{
			"magFilter":9729,
			"minFilter":9987
		}
	],
	"buffers":[
		{
			"byteLength":1212220,
			"uri":"Horse.bin"
		}
	]
}
