{
	"asset":{
		"generator":"Khronos glTF Blender I/O v4.4.56",
		"version":"2.0"
	},
	"extensionsUsed":[
		"KHR_materials_specular",
		"KHR_materials_ior"
	],
	"scene":0,
	"scenes":[
		{
			"name":"Scene",
			"nodes":[
				0,
				1,
				3
			]
		}
	],
	"nodes":[
		{
			"name":"root"
		},
		{
			"name":"root.001"
		},
		{
			"mesh":0,
			"name":"node_id117",
			"scale":[
				0.01720697060227394,
				0.01720697060227394,
				0.01720697060227394
			],
			"translation":[
				0,
				-0.2540976405143738,
				0.24829168617725372
			]
		},
		{
			"children":[
				2
			],
			"name":"root.002"
		}
	],
	"materials":[
		{
			"alphaMode":"MASK",
			"doubleSided":true,
			"extensions":{
				"KHR_materials_specular":{
					"specularColorTexture":{
						"index":0
					}
				},
				"KHR_materials_ior":{
					"ior":1000
				}
			},
			"name":"279",
			"pbrMetallicRoughness":{
				"baseColorTexture":{
					"index":1
				},
				"metallicFactor":0,
				"metallicRoughnessTexture":{
					"index":2
				}
			}
		}
	],
	"meshes":[
		{
			"name":"mesh_id118",
			"primitives":[
				{
					"attributes":{
						"POSITION":0,
						"NORMAL":1,
						"TEXCOORD_0":2
					},
					"indices":3,
					"material":0
				}
			]
		}
	],
	"textures":[
		{
			"sampler":0,
			"source":0
		},
		{
			"sampler":0,
			"source":1
		},
		{
			"sampler":0,
			"source":2
		}
	],
	"images":[
		{
			"mimeType":"image/png",
			"name":"Image_1",
			"uri":"Image_1.png"
		},
		{
			"mimeType":"image/png",
			"name":"Image_0",
			"uri":"Image_0.png"
		},
		{
			"mimeType":"image/png",
			"name":"Image_1",
			"uri":"Image_1-1.png"
		}
	],
	"accessors":[
		{
			"bufferView":0,
			"componentType":5126,
			"count":20590,
			"max":[
				10.708480834960938,
				29.64483642578125,
				35.402618408203125
			],
			"min":[
				-10.708480834960938,
				-0.11054611206054688,
				-14.429656982421875
			],
			"type":"VEC3"
		},
		{
			"bufferView":1,
			"componentType":5126,
			"count":20590,
			"type":"VEC3"
		},
		{
			"bufferView":2,
			"componentType":5126,
			"count":20590,
			"type":"VEC2"
		},
		{
			"bufferView":3,
			"componentType":5123,
			"count":118182,
			"type":"SCALAR"
		}
	],
	"bufferViews":[
		{
			"buffer":0,
			"byteLength":247080,
			"byteOffset":0,
			"target":34962
		},
		{
			"buffer":0,
			"byteLength":247080,
			"byteOffset":247080,
			"target":34962
		},
		{
			"buffer":0,
			"byteLength":164720,
			"byteOffset":494160,
			"target":34962
		},
		{
			"buffer":0,
			"byteLength":236364,
			"byteOffset":658880,
			"target":34963
		}
	],
	"samplers":[
		{
			"magFilter":9729,
			"minFilter":9987
		}
	],
	"buffers":[
		{
			"byteLength":895244,
			"uri":"Elephant.bin"
		}
	]
}
