{
	"asset":{
		"generator":"Khronos glTF Blender I/O v4.4.56",
		"version":"2.0"
	},
	"extensionsUsed":[
		"KHR_materials_specular",
		"KHR_materials_ior"
	],
	"scene":0,
	"scenes":[
		{
			"name":"Scene",
			"nodes":[
				0,
				2
			]
		}
	],
	"nodes":[
		{
			"name":"root"
		},
		{
			"mesh":0,
			"name":"node_id81",
			"scale":[
				0.31022903323173523,
				0.31022903323173523,
				0.31022903323173523
			],
			"translation":[
				0,
				-0.2544705271720886,
				0.2917321026325226
			]
		},
		{
			"children":[
				1
			],
			"name":"root.001"
		}
	],
	"materials":[
		{
			"alphaMode":"MASK",
			"doubleSided":true,
			"extensions":{
				"KHR_materials_specular":{
					"specularColorTexture":{
						"index":0
					}
				},
				"KHR_materials_ior":{
					"ior":1000
				}
			},
			"name":"122",
			"pbrMetallicRoughness":{
				"baseColorTexture":{
					"index":1
				},
				"metallicFactor":0,
				"metallicRoughnessTexture":{
					"index":2
				}
			}
		}
	],
	"meshes":[
		{
			"name":"mesh_id82",
			"primitives":[
				{
					"attributes":{
						"POSITION":0,
						"NORMAL":1,
						"TEXCOORD_0":2
					},
					"indices":3,
					"material":0
				}
			]
		}
	],
	"textures":[
		{
			"sampler":0,
			"source":0
		},
		{
			"sampler":0,
			"source":1
		},
		{
			"sampler":0,
			"source":2
		}
	],
	"images":[
		{
			"mimeType":"image/png",
			"name":"Image_1",
			"uri":"Image_1.png"
		},
		{
			"mimeType":"image/png",
			"name":"Image_0",
			"uri":"Image_0.png"
		},
		{
			"mimeType":"image/png",
			"name":"Image_1",
			"uri":"Image_1-1.png"
		}
	],
	"accessors":[
		{
			"bufferView":0,
			"componentType":5126,
			"count":10334,
			"max":[
				0.2835807204246521,
				1.6454641819000244,
				0.9403734803199768
			],
			"min":[
				-0.2835807204246521,
				-0.0049294233322143555,
				-0.940373420715332
			],
			"type":"VEC3"
		},
		{
			"bufferView":1,
			"componentType":5126,
			"count":10334,
			"type":"VEC3"
		},
		{
			"bufferView":2,
			"componentType":5126,
			"count":10334,
			"type":"VEC2"
		},
		{
			"bufferView":3,
			"componentType":5123,
			"count":56154,
			"type":"SCALAR"
		}
	],
	"bufferViews":[
		{
			"buffer":0,
			"byteLength":124008,
			"byteOffset":0,
			"target":34962
		},
		{
			"buffer":0,
			"byteLength":124008,
			"byteOffset":124008,
			"target":34962
		},
		{
			"buffer":0,
			"byteLength":82672,
			"byteOffset":248016,
			"target":34962
		},
		{
			"buffer":0,
			"byteLength":112308,
			"byteOffset":330688,
			"target":34963
		}
	],
	"samplers":[
		{
			"magFilter":9729,
			"minFilter":9987
		}
	],
	"buffers":[
		{
			"byteLength":442996,
			"uri":"Ram.bin"
		}
	]
}
