{
	"asset":{
		"generator":"Khronos glTF Blender I/O v4.4.56",
		"version":"2.0"
	},
	"extensionsUsed":[
		"KHR_materials_specular",
		"KHR_materials_ior"
	],
	"scene":0,
	"scenes":[
		{
			"name":"Scene",
			"nodes":[
				0,
				1,
				2,
				3,
				4,
				6
			]
		}
	],
	"nodes":[
		{
			"name":"root"
		},
		{
			"name":"root.001"
		},
		{
			"name":"root.002"
		},
		{
			"name":"root.003"
		},
		{
			"name":"root.004"
		},
		{
			"mesh":0,
			"name":"node_id62",
			"scale":[
				0.018503518775105476,
				0.018503518775105476,
				0.018503518775105476
			],
			"translation":[
				0.12942102551460266,
				-0.20240895450115204,
				0.8708018660545349
			]
		},
		{
			"children":[
				5
			],
			"name":"root.005"
		}
	],
	"materials":[
		{
			"alphaMode":"MASK",
			"doubleSided":true,
			"extensions":{
				"KHR_materials_specular":{
					"specularColorTexture":{
						"index":0
					}
				},
				"KHR_materials_ior":{
					"ior":1000
				}
			},
			"name":"140",
			"pbrMetallicRoughness":{
				"baseColorTexture":{
					"index":1
				},
				"metallicFactor":0,
				"metallicRoughnessTexture":{
					"index":2
				}
			}
		}
	],
	"meshes":[
		{
			"name":"mesh_id63",
			"primitives":[
				{
					"attributes":{
						"POSITION":0,
						"NORMAL":1,
						"TEXCOORD_0":2
					},
					"indices":3,
					"material":0
				}
			]
		}
	],
	"textures":[
		{
			"sampler":0,
			"source":0
		},
		{
			"sampler":0,
			"source":1
		},
		{
			"sampler":0,
			"source":2
		}
	],
	"images":[
		{
			"mimeType":"image/png",
			"name":"Image_1",
			"uri":"Image_1.png"
		},
		{
			"mimeType":"image/png",
			"name":"Image_0",
			"uri":"Image_0.png"
		},
		{
			"mimeType":"image/png",
			"name":"Image_1",
			"uri":"Image_1-1.png"
		}
	],
	"accessors":[
		{
			"bufferView":0,
			"componentType":5126,
			"count":14914,
			"max":[
				6.84080696105957,
				21.95793914794922,
				21.062040328979492
			],
			"min":[
				-20.829608917236328,
				-0.08002372086048126,
				-47.061370849609375
			],
			"type":"VEC3"
		},
		{
			"bufferView":1,
			"componentType":5126,
			"count":14914,
			"type":"VEC3"
		},
		{
			"bufferView":2,
			"componentType":5126,
			"count":14914,
			"type":"VEC2"
		},
		{
			"bufferView":3,
			"componentType":5123,
			"count":80544,
			"type":"SCALAR"
		}
	],
	"bufferViews":[
		{
			"buffer":0,
			"byteLength":178968,
			"byteOffset":0,
			"target":34962
		},
		{
			"buffer":0,
			"byteLength":178968,
			"byteOffset":178968,
			"target":34962
		},
		{
			"buffer":0,
			"byteLength":119312,
			"byteOffset":357936,
			"target":34962
		},
		{
			"buffer":0,
			"byteLength":161088,
			"byteOffset":477248,
			"target":34963
		}
	],
	"samplers":[
		{
			"magFilter":9729,
			"minFilter":9987
		}
	],
	"buffers":[
		{
			"byteLength":638336,
			"uri":"weasel.bin"
		}
	]
}
