{
	"asset":{
		"generator":"Khronos glTF Blender I/O v4.4.56",
		"version":"2.0"
	},
	"extensionsUsed":[
		"KHR_materials_specular",
		"KHR_materials_ior"
	],
	"scene":0,
	"scenes":[
		{
			"name":"Scene",
			"nodes":[
				0,
				1,
				3
			]
		}
	],
	"nodes":[
		{
			"name":"root"
		},
		{
			"name":"root.001"
		},
		{
			"mesh":0,
			"name":"node_id30",
			"scale":[
				0.024753296747803688,
				0.024753296747803688,
				0.024753296747803688
			],
			"translation":[
				0,
				-0.256011962890625,
				0.2312476933002472
			]
		},
		{
			"children":[
				2
			],
			"name":"root.002"
		}
	],
	"materials":[
		{
			"alphaMode":"MASK",
			"doubleSided":true,
			"extensions":{
				"KHR_materials_specular":{
					"specularColorTexture":{
						"index":0
					}
				},
				"KHR_materials_ior":{
					"ior":1000
				}
			},
			"name":"98",
			"pbrMetallicRoughness":{
				"baseColorTexture":{
					"index":1
				},
				"metallicFactor":0,
				"metallicRoughnessTexture":{
					"index":2
				}
			}
		}
	],
	"meshes":[
		{
			"name":"mesh_id31",
			"primitives":[
				{
					"attributes":{
						"POSITION":0,
						"NORMAL":1,
						"TEXCOORD_0":2
					},
					"indices":3,
					"material":0
				}
			]
		}
	],
	"textures":[
		{
			"sampler":0,
			"source":0
		},
		{
			"sampler":0,
			"source":1
		},
		{
			"sampler":0,
			"source":2
		}
	],
	"images":[
		{
			"mimeType":"image/png",
			"name":"Image_1",
			"uri":"Image_1.png"
		},
		{
			"mimeType":"image/png",
			"name":"Image_0",
			"uri":"Image_0.png"
		},
		{
			"mimeType":"image/png",
			"name":"Image_1",
			"uri":"Image_1-1.png"
		}
	],
	"accessors":[
		{
			"bufferView":0,
			"componentType":5126,
			"count":14734,
			"max":[
				1.6044809818267822,
				20.684602737426758,
				6.519360542297363
			],
			"min":[
				-1.604446530342102,
				0.0004926025867462158,
				-4.519360542297363
			],
			"type":"VEC3"
		},
		{
			"bufferView":1,
			"componentType":5126,
			"count":14734,
			"type":"VEC3"
		},
		{
			"bufferView":2,
			"componentType":5126,
			"count":14734,
			"type":"VEC2"
		},
		{
			"bufferView":3,
			"componentType":5123,
			"count":83856,
			"type":"SCALAR"
		}
	],
	"bufferViews":[
		{
			"buffer":0,
			"byteLength":176808,
			"byteOffset":0,
			"target":34962
		},
		{
			"buffer":0,
			"byteLength":176808,
			"byteOffset":176808,
			"target":34962
		},
		{
			"buffer":0,
			"byteLength":117872,
			"byteOffset":353616,
			"target":34962
		},
		{
			"buffer":0,
			"byteLength":167712,
			"byteOffset":471488,
			"target":34963
		}
	],
	"samplers":[
		{
			"magFilter":9729,
			"minFilter":9987
		}
	],
	"buffers":[
		{
			"byteLength":639200,
			"uri":"sea_horse.bin"
		}
	]
}
