{
	"asset":{
		"generator":"Khronos glTF Blender I/O v4.4.56",
		"version":"2.0"
	},
	"extensionsUsed":[
		"KHR_materials_specular",
		"KHR_materials_ior"
	],
	"scene":0,
	"scenes":[
		{
			"name":"Scene",
			"nodes":[
				0,
				1,
				2,
				3,
				4,
				5,
				6,
				7,
				8,
				9,
				10,
				11,
				12,
				13,
				15
			]
		}
	],
	"nodes":[
		{
			"name":"root"
		},
		{
			"name":"root.001"
		},
		{
			"name":"root.002"
		},
		{
			"name":"root.003"
		},
		{
			"name":"root.004"
		},
		{
			"name":"root.005"
		},
		{
			"name":"root.006"
		},
		{
			"name":"root.007"
		},
		{
			"name":"root.008"
		},
		{
			"name":"root.009"
		},
		{
			"name":"root.010"
		},
		{
			"name":"root.011"
		},
		{
			"name":"root.012"
		},
		{
			"name":"root.013"
		},
		{
			"mesh":0,
			"name":"node_id78",
			"scale":[
				0.09311335533857346,
				0.09311335533857346,
				0.09311335533857346
			],
			"translation":[
				7.0588912421953864e-06,
				-0.25240960717201233,
				0.4786948263645172
			]
		},
		{
			"children":[
				14
			],
			"name":"root.014"
		}
	],
	"materials":[
		{
			"alphaMode":"MASK",
			"doubleSided":true,
			"extensions":{
				"KHR_materials_specular":{
					"specularColorTexture":{
						"index":0
					}
				},
				"KHR_materials_ior":{
					"ior":1000
				}
			},
			"name":"232",
			"pbrMetallicRoughness":{
				"baseColorTexture":{
					"index":1
				},
				"metallicFactor":0,
				"metallicRoughnessTexture":{
					"index":2
				}
			}
		}
	],
	"meshes":[
		{
			"name":"mesh_id79",
			"primitives":[
				{
					"attributes":{
						"POSITION":0,
						"NORMAL":1,
						"TEXCOORD_0":2
					},
					"indices":3,
					"material":0
				}
			]
		}
	],
	"textures":[
		{
			"sampler":0,
			"source":0
		},
		{
			"sampler":0,
			"source":1
		},
		{
			"sampler":0,
			"source":2
		}
	],
	"images":[
		{
			"mimeType":"image/png",
			"name":"Image_1",
			"uri":"Image_1.png"
		},
		{
			"mimeType":"image/png",
			"name":"Image_0",
			"uri":"Image_0.png"
		},
		{
			"mimeType":"image/png",
			"name":"Image_1",
			"uri":"Image_1-1.png"
		}
	],
	"accessors":[
		{
			"bufferView":0,
			"componentType":5126,
			"count":29816,
			"max":[
				1.174051284790039,
				5.460117340087891,
				4.878662109375
			],
			"min":[
				-1.1742029190063477,
				-0.03855717182159424,
				-5.140979766845703
			],
			"type":"VEC3"
		},
		{
			"bufferView":1,
			"componentType":5126,
			"count":29816,
			"type":"VEC3"
		},
		{
			"bufferView":2,
			"componentType":5126,
			"count":29816,
			"type":"VEC2"
		},
		{
			"bufferView":3,
			"componentType":5123,
			"count":158541,
			"type":"SCALAR"
		}
	],
	"bufferViews":[
		{
			"buffer":0,
			"byteLength":357792,
			"byteOffset":0,
			"target":34962
		},
		{
			"buffer":0,
			"byteLength":357792,
			"byteOffset":357792,
			"target":34962
		},
		{
			"buffer":0,
			"byteLength":238528,
			"byteOffset":715584,
			"target":34962
		},
		{
			"buffer":0,
			"byteLength":317082,
			"byteOffset":954112,
			"target":34963
		}
	],
	"samplers":[
		{
			"magFilter":9729,
			"minFilter":9987
		}
	],
	"buffers":[
		{
			"byteLength":1271196,
			"uri":"Labrador_retriever.bin"
		}
	]
}
