{
	"asset":{
		"generator":"Khronos glTF Blender I/O v4.4.56",
		"version":"2.0"
	},
	"extensionsUsed":[
		"KHR_materials_specular",
		"KHR_materials_ior"
	],
	"scene":0,
	"scenes":[
		{
			"name":"Scene",
			"nodes":[
				0,
				1,
				2,
				4
			]
		}
	],
	"nodes":[
		{
			"name":"root"
		},
		{
			"name":"root.001"
		},
		{
			"name":"root.002"
		},
		{
			"mesh":0,
			"name":"node_id69",
			"scale":[
				0.09714534878730774,
				0.09714534878730774,
				0.09714534878730774
			],
			"translation":[
				-0.06101912260055542,
				-0.2546479403972626,
				0.238800510764122
			]
		},
		{
			"children":[
				3
			],
			"name":"root.003"
		}
	],
	"materials":[
		{
			"alphaMode":"MASK",
			"doubleSided":true,
			"extensions":{
				"KHR_materials_specular":{
					"specularColorTexture":{
						"index":0
					}
				},
				"KHR_materials_ior":{
					"ior":1000
				}
			},
			"name":"106",
			"pbrMetallicRoughness":{
				"baseColorTexture":{
					"index":1
				},
				"metallicFactor":0,
				"metallicRoughnessTexture":{
					"index":2
				}
			}
		}
	],
	"meshes":[
		{
			"name":"mesh_id70",
			"primitives":[
				{
					"attributes":{
						"POSITION":0,
						"NORMAL":1,
						"TEXCOORD_0":2
					},
					"indices":3,
					"material":0
				}
			]
		}
	],
	"textures":[
		{
			"sampler":0,
			"source":0
		},
		{
			"sampler":0,
			"source":1
		},
		{
			"sampler":0,
			"source":2
		}
	],
	"images":[
		{
			"mimeType":"image/png",
			"name":"Image_1",
			"uri":"Image_1.png"
		},
		{
			"mimeType":"image/png",
			"name":"Image_0",
			"uri":"Image_0.png"
		},
		{
			"mimeType":"image/png",
			"name":"Image_1",
			"uri":"Image_1-1.png"
		}
	],
	"accessors":[
		{
			"bufferView":0,
			"componentType":5126,
			"count":15050,
			"max":[
				2.1064562797546387,
				5.256537437438965,
				3.6287331581115723
			],
			"min":[
				-0.8502124547958374,
				-0.013915879651904106,
				-2.45816707611084
			],
			"type":"VEC3"
		},
		{
			"bufferView":1,
			"componentType":5126,
			"count":15050,
			"type":"VEC3"
		},
		{
			"bufferView":2,
			"componentType":5126,
			"count":15050,
			"type":"VEC2"
		},
		{
			"bufferView":3,
			"componentType":5123,
			"count":81963,
			"type":"SCALAR"
		}
	],
	"bufferViews":[
		{
			"buffer":0,
			"byteLength":180600,
			"byteOffset":0,
			"target":34962
		},
		{
			"buffer":0,
			"byteLength":180600,
			"byteOffset":180600,
			"target":34962
		},
		{
			"buffer":0,
			"byteLength":120400,
			"byteOffset":361200,
			"target":34962
		},
		{
			"buffer":0,
			"byteLength":163926,
			"byteOffset":481600,
			"target":34963
		}
	],
	"samplers":[
		{
			"magFilter":9729,
			"minFilter":9987
		}
	],
	"buffers":[
		{
			"byteLength":645528,
			"uri":"goat.bin"
		}
	]
}
