{
	"asset":{
		"generator":"Khronos glTF Blender I/O v4.4.56",
		"version":"2.0"
	},
	"extensionsUsed":[
		"KHR_materials_specular",
		"KHR_materials_ior"
	],
	"scene":0,
	"scenes":[
		{
			"name":"Scene",
			"nodes":[
				1
			]
		}
	],
	"nodes":[
		{
			"mesh":0,
			"name":"node_id39",
			"scale":[
				0.06552115082740784,
				0.06552115082740784,
				0.06552115082740784
			],
			"translation":[
				-6.615932943532243e-05,
				-0.2557976543903351,
				0.21285569667816162
			]
		},
		{
			"children":[
				0
			],
			"name":"root"
		}
	],
	"materials":[
		{
			"alphaMode":"MASK",
			"doubleSided":true,
			"extensions":{
				"KHR_materials_specular":{
					"specularColorTexture":{
						"index":0
					}
				},
				"KHR_materials_ior":{
					"ior":1000
				}
			},
			"name":"282",
			"pbrMetallicRoughness":{
				"baseColorTexture":{
					"index":1
				},
				"metallicFactor":0,
				"metallicRoughnessTexture":{
					"index":2
				}
			}
		}
	],
	"meshes":[
		{
			"name":"mesh_id40",
			"primitives":[
				{
					"attributes":{
						"POSITION":0,
						"NORMAL":1,
						"TEXCOORD_0":2
					},
					"indices":3,
					"material":0
				}
			]
		}
	],
	"textures":[
		{
			"sampler":0,
			"source":0
		},
		{
			"sampler":0,
			"source":1
		},
		{
			"sampler":0,
			"source":2
		}
	],
	"images":[
		{
			"mimeType":"image/png",
			"name":"Image_1",
			"uri":"Image_1.png"
		},
		{
			"mimeType":"image/png",
			"name":"Image_0",
			"uri":"Image_0.png"
		},
		{
			"mimeType":"image/png",
			"name":"Image_1",
			"uri":"Image_1-1.png"
		}
	],
	"accessors":[
		{
			"bufferView":0,
			"componentType":5126,
			"count":11869,
			"max":[
				1.0010939836502075,
				7.811185836791992,
				3.994295835494995
			],
			"min":[
				-0.9990745782852173,
				-0.0030847787857055664,
				-2.677306890487671
			],
			"type":"VEC3"
		},
		{
			"bufferView":1,
			"componentType":5126,
			"count":11869,
			"type":"VEC3"
		},
		{
			"bufferView":2,
			"componentType":5126,
			"count":11869,
			"type":"VEC2"
		},
		{
			"bufferView":3,
			"componentType":5123,
			"count":64800,
			"type":"SCALAR"
		}
	],
	"bufferViews":[
		{
			"buffer":0,
			"byteLength":142428,
			"byteOffset":0,
			"target":34962
		},
		{
			"buffer":0,
			"byteLength":142428,
			"byteOffset":142428,
			"target":34962
		},
		{
			"buffer":0,
			"byteLength":94952,
			"byteOffset":284856,
			"target":34962
		},
		{
			"buffer":0,
			"byteLength":129600,
			"byteOffset":379808,
			"target":34963
		}
	],
	"samplers":[
		{
			"magFilter":9729,
			"minFilter":9987
		}
	],
	"buffers":[
		{
			"byteLength":509408,
			"uri":"Alpaca.bin"
		}
	]
}
