{
	"asset":{
		"generator":"Khronos glTF Blender I/O v4.4.56",
		"version":"2.0"
	},
	"extensionsUsed":[
		"KHR_materials_specular",
		"KHR_materials_ior"
	],
	"scene":0,
	"scenes":[
		{
			"name":"Scene",
			"nodes":[
				1
			]
		}
	],
	"nodes":[
		{
			"mesh":0,
			"name":"node_id90",
			"scale":[
				0.011825705878436565,
				0.011825705878436565,
				0.011825705878436565
			],
			"translation":[
				0.017576424404978752,
				-0.25187110900878906,
				0.15703085064888
			]
		},
		{
			"children":[
				0
			],
			"name":"root"
		}
	],
	"materials":[
		{
			"alphaMode":"MASK",
			"doubleSided":true,
			"extensions":{
				"KHR_materials_specular":{
					"specularColorTexture":{
						"index":0
					}
				},
				"KHR_materials_ior":{
					"ior":1000
				}
			},
			"name":"134",
			"pbrMetallicRoughness":{
				"baseColorTexture":{
					"index":1
				},
				"metallicFactor":0,
				"metallicRoughnessTexture":{
					"index":2
				}
			}
		}
	],
	"meshes":[
		{
			"name":"mesh_id91",
			"primitives":[
				{
					"attributes":{
						"POSITION":0,
						"NORMAL":1,
						"TEXCOORD_0":2
					},
					"indices":3,
					"material":0
				}
			]
		}
	],
	"textures":[
		{
			"sampler":0,
			"source":0
		},
		{
			"sampler":0,
			"source":1
		},
		{
			"sampler":0,
			"source":2
		}
	],
	"images":[
		{
			"mimeType":"image/png",
			"name":"Image_1",
			"uri":"Image_1.png"
		},
		{
			"mimeType":"image/png",
			"name":"Image_0",
			"uri":"Image_0.png"
		},
		{
			"mimeType":"image/png",
			"name":"Image_1",
			"uri":"Image_1-1.png"
		}
	],
	"accessors":[
		{
			"bufferView":0,
			"componentType":5126,
			"count":18133,
			"max":[
				10.55183219909668,
				42.94638442993164,
				23.91136932373047
			],
			"min":[
				-13.524412155151367,
				-0.3491295874118805,
				-7.173232078552246
			],
			"type":"VEC3"
		},
		{
			"bufferView":1,
			"componentType":5126,
			"count":18133,
			"type":"VEC3"
		},
		{
			"bufferView":2,
			"componentType":5126,
			"count":18133,
			"type":"VEC2"
		},
		{
			"bufferView":3,
			"componentType":5123,
			"count":75981,
			"type":"SCALAR"
		}
	],
	"bufferViews":[
		{
			"buffer":0,
			"byteLength":217596,
			"byteOffset":0,
			"target":34962
		},
		{
			"buffer":0,
			"byteLength":217596,
			"byteOffset":217596,
			"target":34962
		},
		{
			"buffer":0,
			"byteLength":145064,
			"byteOffset":435192,
			"target":34962
		},
		{
			"buffer":0,
			"byteLength":151962,
			"byteOffset":580256,
			"target":34963
		}
	],
	"samplers":[
		{
			"magFilter":9729,
			"minFilter":9987
		}
	],
	"buffers":[
		{
			"byteLength":732220,
			"uri":"meerkat.bin"
		}
	]
}
