{
	"asset":{
		"generator":"Khronos glTF Blender I/O v4.4.56",
		"version":"2.0"
	},
	"extensionsUsed":[
		"KHR_materials_specular",
		"KHR_materials_ior"
	],
	"scene":0,
	"scenes":[
		{
			"name":"Scene",
			"nodes":[
				0,
				1,
				2,
				3,
				4,
				5,
				7
			]
		}
	],
	"nodes":[
		{
			"name":"root"
		},
		{
			"name":"root.001"
		},
		{
			"name":"root.002"
		},
		{
			"name":"root.003"
		},
		{
			"name":"root.004"
		},
		{
			"name":"root.005"
		},
		{
			"mesh":0,
			"name":"node_id54",
			"scale":[
				0.1869732290506363,
				0.1869732290506363,
				0.1869732290506363
			],
			"translation":[
				-0.0002723082434386015,
				-0.11626166105270386,
				0.26639968156814575
			]
		},
		{
			"children":[
				6
			],
			"name":"root.006"
		}
	],
	"materials":[
		{
			"alphaMode":"MASK",
			"doubleSided":true,
			"extensions":{
				"KHR_materials_specular":{
					"specularColorTexture":{
						"index":0
					}
				},
				"KHR_materials_ior":{
					"ior":1000
				}
			},
			"name":"93",
			"pbrMetallicRoughness":{
				"baseColorTexture":{
					"index":1
				},
				"metallicFactor":0,
				"metallicRoughnessTexture":{
					"index":2
				}
			}
		}
	],
	"meshes":[
		{
			"name":"mesh_id55",
			"primitives":[
				{
					"attributes":{
						"POSITION":0,
						"NORMAL":1,
						"TEXCOORD_0":2
					},
					"indices":3,
					"material":0
				}
			]
		}
	],
	"textures":[
		{
			"sampler":0,
			"source":0
		},
		{
			"sampler":0,
			"source":1
		},
		{
			"sampler":0,
			"source":2
		}
	],
	"images":[
		{
			"mimeType":"image/png",
			"name":"Image_1",
			"uri":"Image_1.png"
		},
		{
			"mimeType":"image/png",
			"name":"Image_0",
			"uri":"Image_0.png"
		},
		{
			"mimeType":"image/png",
			"name":"Image_1",
			"uri":"Image_1-1.png"
		}
	],
	"accessors":[
		{
			"bufferView":0,
			"componentType":5126,
			"count":22961,
			"max":[
				1.3706364631652832,
				1.2573943138122559,
				1.1452137231826782
			],
			"min":[
				-1.3677237033843994,
				-0.01377367414534092,
				-1.2564456462860107
			],
			"type":"VEC3"
		},
		{
			"bufferView":1,
			"componentType":5126,
			"count":22961,
			"type":"VEC3"
		},
		{
			"bufferView":2,
			"componentType":5126,
			"count":22961,
			"type":"VEC2"
		},
		{
			"bufferView":3,
			"componentType":5123,
			"count":127872,
			"type":"SCALAR"
		}
	],
	"bufferViews":[
		{
			"buffer":0,
			"byteLength":275532,
			"byteOffset":0,
			"target":34962
		},
		{
			"buffer":0,
			"byteLength":275532,
			"byteOffset":275532,
			"target":34962
		},
		{
			"buffer":0,
			"byteLength":183688,
			"byteOffset":551064,
			"target":34962
		},
		{
			"buffer":0,
			"byteLength":255744,
			"byteOffset":734752,
			"target":34963
		}
	],
	"samplers":[
		{
			"magFilter":9729,
			"minFilter":9987
		}
	],
	"buffers":[
		{
			"byteLength":990496,
			"uri":"frog.bin"
		}
	]
}
